<svg xmlns="http://www.w3.org/2000/svg" xmlns:xlink="http://www.w3.org/1999/xlink" width="900" zoomAndPan="magnify" viewBox="0 0 675 112.499997" height="150" preserveAspectRatio="xMidYMid meet" version="1.0"><defs><clipPath id="e63d0f6734"><path d="M 1.492188 0 L 673.503906 0 L 673.503906 112.003906 L 1.492188 112.003906 Z M 1.492188 0 " clip-rule="nonzero"/></clipPath></defs><g clip-path="url(#e63d0f6734)"><path stroke-linecap="butt" transform="matrix(1.395149, 0, 0, 1.395149, 5.259954, 29.411338)" fill="none" stroke-linejoin="miter" d="M 4.461475 11.445067 L 2.739548 24.400117 L 38.295238 38.511517 L 40.036764 25.419273 L 19.508036 17.932391 L 42.038679 10.445509 L 43.690609 -2.666334 Z M 67.024818 -10.153216 L 46.286099 46.001199 L 60.979875 46.001199 L 64.653319 34.628082 L 76.306424 34.628082 L 77.165987 46.001199 L 91.789766 46.001199 L 85.742023 -10.153216 Z M 74.301709 5.680112 L 75.514057 22.818184 L 68.606751 22.818184 Z M 108.773845 -10.153216 L 101.426957 46.001199 L 121.586101 46.001199 C 130.514922 46.001199 141.745245 43.979685 143.187183 29.302709 L 143.327177 27.86077 C 143.909553 22.095815 142.028033 18.934749 138.724173 16.983232 C 141.745245 15.048514 143.97955 12.097439 144.629122 7.334842 L 144.839113 5.752909 C 146.79063 -8.344493 137.14224 -10.153216 128.563404 -10.153216 Z M 124.89276 23.257765 C 127.124266 23.257765 129.935346 23.907338 129.512564 28.283552 L 129.425768 29.075918 C 129.002986 33.468932 125.682327 34.188501 123.450822 34.188501 L 116.613512 34.188501 L 118.055451 23.257765 Z M 126.841478 1.656683 C 129.002986 1.656683 131.307288 2.236258 130.937704 6.18969 L 130.867707 6.982057 C 130.514922 10.865492 127.563847 11.445067 125.542333 11.445067 L 119.637384 11.445067 L 120.936528 1.656683 Z M 180.904381 -11.155573 C 165.787823 -11.155573 158.440935 -2.806328 155.859445 16.630447 L 155.489861 19.354731 C 152.905571 38.794305 159.672883 47.000757 174.786641 47.000757 C 189.903199 47.000757 197.18009 38.654311 199.761581 19.214737 L 200.131165 16.490453 C 202.715455 -2.949122 196.01814 -11.155573 180.904381 -11.155573 Z M 175.139426 35.207658 C 168.671701 35.207658 168.092126 29.162714 169.39127 19.354731 L 169.744055 16.630447 C 171.0432 6.842062 173.204708 0.654325 179.672434 0.654325 L 180.4648 0.654325 C 186.949325 0.654325 187.5289 6.702068 186.229755 16.490453 L 185.87697 19.214737 C 184.577825 29.003121 182.416317 35.207658 175.928993 35.207658 Z M 228.415564 47.000757 C 244.691272 47.000757 249.787056 39.953456 251.298992 28.143558 L 256.344377 -10.153216 L 242.669758 -10.153216 L 237.69437 27.790773 C 237.114794 32.256583 235.182876 35.207658 229.20793 35.207658 C 223.230184 35.207658 222.720605 32.256583 223.300181 27.790773 L 228.27557 -10.153216 L 214.584151 -10.153216 L 209.558364 28.143558 C 208.046429 39.953456 212.139855 47.000757 228.415564 47.000757 Z M 290.833313 1.656683 L 303.415978 1.656683 L 304.927914 -10.153216 L 266.068364 -10.153216 L 264.556429 1.656683 L 277.141894 1.656683 L 271.323741 46.001199 L 284.99836 46.001199 Z M 348.272873 47.000757 C 364.545782 47.000757 369.644366 39.953456 371.156301 28.143558 L 376.198887 -10.153216 L 362.527068 -10.153216 L 357.551679 27.790773 C 356.972104 32.256583 355.037386 35.207658 349.06244 35.207658 C 343.087493 35.207658 342.577915 32.256583 343.15749 27.790773 L 348.130079 -10.153216 L 334.438661 -10.153216 L 329.412874 28.143558 C 327.900938 39.953456 331.997164 47.000757 348.272873 47.000757 Z M 400.969435 23.397759 C 408.596311 24.400117 409.968253 26.631622 409.668666 29.442703 L 409.598669 30.165072 C 409.318681 32.906156 407.227169 35.207658 402.551368 35.207658 L 401.831798 35.207658 C 397.155997 35.207658 395.064486 32.746562 395.854052 26.561625 L 382.182233 26.561625 L 382.02264 27.720776 C 380.37071 40.745823 387.43481 47.000757 401.109429 47.000757 C 414.344467 47.000757 422.27093 41.395395 423.430081 30.814644 L 423.572875 29.5127 C 424.785224 18.791955 419.45985 14.029357 407.43716 12.377427 C 400.020275 11.37507 398.807927 9.426353 399.087915 6.402481 L 399.157912 5.680112 C 399.457499 2.88583 401.759002 0.654325 405.715234 0.654325 L 406.434803 0.654325 C 411.480189 0.654325 412.922127 3.678197 412.042965 10.005928 L 425.734383 10.005928 L 425.944374 8.281201 C 427.526307 -4.531055 421.691355 -11.155573 407.666751 -11.155573 C 393.622547 -11.155573 386.345656 -4.388261 385.273302 5.540118 L 385.116508 6.842062 C 383.974157 16.983232 388.946746 21.815827 400.969435 23.397759 Z M 473.811141 11.445067 L 438.185455 -2.666334 L 436.513925 10.445509 L 457.042654 17.932391 L 434.512011 25.419273 L 432.770484 38.511517 L 472.089215 24.400117 Z M 473.811141 11.445067 " stroke="#ffcc01" stroke-width="4.409627" stroke-opacity="1" stroke-miterlimit="4"/></g></svg>