<svg xmlns="http://www.w3.org/2000/svg" xmlns:xlink="http://www.w3.org/1999/xlink" width="859" zoomAndPan="magnify" viewBox="0 0 644.25 131.249995" height="175" preserveAspectRatio="xMidYMid meet" version="1.0"><defs><clipPath id="6010b53b6b"><path d="M 1.457031 12 L 344 12 L 344 115 L 1.457031 115 Z M 1.457031 12 " clip-rule="nonzero"/></clipPath><clipPath id="f65966303f"><path d="M 333 12 L 642.046875 12 L 642.046875 115 L 333 115 Z M 333 12 " clip-rule="nonzero"/></clipPath></defs><g clip-path="url(#6010b53b6b)"><path stroke-linecap="butt" transform="matrix(0.745739, 0, 0, 0.745739, -2.371796, 37.316404)" fill="none" stroke-linejoin="miter" d="M 24.583324 27.32191 L 22.404277 43.696197 L 67.347137 61.537151 L 69.547138 44.984768 L 43.597612 35.51953 L 72.082376 26.054291 L 74.167138 9.480956 Z M 107.308569 0.0157171 L 81.0919 71.00239 L 99.666188 71.00239 L 104.312378 56.623817 L 119.041904 56.623817 L 120.131427 71.00239 L 138.611429 71.00239 L 130.969047 0.0157171 Z M 116.506665 20.035719 L 118.041427 41.695244 L 109.309522 41.695244 Z M 196.764767 71.00239 L 198.676672 56.068579 L 173.638575 56.068579 L 181.013813 0.0157171 L 163.728098 0.0157171 L 154.440954 71.00239 Z M 222.426198 0.0157171 L 213.139054 71.00239 L 257.725724 71.00239 L 259.637629 56.068579 L 232.331437 56.068579 L 234.154294 42.250483 L 256.903343 42.250483 L 258.904296 27.32191 L 236.155246 27.32191 L 237.800008 14.949528 L 265.106201 14.949528 L 267.012868 0.0157171 Z M 273.209535 71.00239 L 292.31287 71.00239 L 304.957633 46.896673 L 311.421443 71.00239 L 330.524778 71.00239 L 318.974777 33.408577 L 339.811922 0.0157171 L 319.797158 0.0157171 L 308.330967 21.680481 L 302.511442 0.0157171 L 282.496679 0.0157171 L 294.491918 33.408577 Z M 400.704784 42.428578 C 410.348118 43.696197 412.076689 46.51953 411.699547 50.070959 L 411.610499 50.982388 C 411.254308 54.450007 408.614308 57.35715 402.705736 57.35715 L 401.794308 57.35715 C 395.880498 57.35715 393.240497 54.25096 394.240974 46.430483 L 376.955258 46.430483 L 376.75621 47.89715 C 374.66621 64.355246 383.597163 72.264771 400.882879 72.264771 C 417.608118 72.264771 427.628595 65.177627 429.095262 51.804769 L 429.273358 50.160007 C 430.80812 36.609053 424.077167 30.585243 408.881451 28.500481 C 399.50526 27.232862 397.970498 24.765719 398.326688 20.947147 L 398.415736 20.035719 C 398.792879 16.500004 401.70526 13.681909 406.702403 13.681909 L 407.613832 13.681909 C 413.988594 13.681909 415.811452 17.50048 414.700975 25.499053 L 432.007643 25.499053 L 432.274786 23.325243 C 434.275739 7.129051 426.895262 -1.246664 409.169546 -1.246664 C 391.41764 -1.246664 382.219544 7.301908 380.862877 19.857624 L 380.66383 21.502386 C 379.218115 34.320006 385.509068 40.427625 400.704784 42.428578 Z M 400.704784 42.428578 " stroke="#27ae60" stroke-width="5.574234" stroke-opacity="1" stroke-miterlimit="4"/></g><path stroke-linecap="butt" transform="matrix(0.745739, 0, 0, 0.745739, -2.371796, 37.316404)" fill="none" stroke-linejoin="miter" d="M 471.314313 0.0157171 L 454.007645 0.0157171 L 444.741454 71.00239 L 462.02717 71.00239 Z M 457.915265 -5.447617 L 463.850027 -8.978093 L 468.84717 -5.447617 L 483.864791 -5.447617 L 473.404314 -15.447141 L 456.118598 -15.447141 L 442.918597 -5.447617 Z M 457.915265 -5.447617 " stroke="#27ae60" stroke-width="5.574234" stroke-opacity="1" stroke-miterlimit="4"/><g clip-path="url(#f65966303f)"><path stroke-linecap="butt" transform="matrix(0.745739, 0, 0, 0.745739, -2.371796, 37.316404)" fill="none" stroke-linejoin="miter" d="M 504.434792 31.700958 L 506.702888 14.949528 L 514.612412 14.949528 C 517.990984 14.949528 521.542413 16.033814 520.898127 22.764767 L 520.809079 23.765243 C 520.164794 30.323339 515.722888 31.700958 512.344317 31.700958 Z M 502.528125 46.60334 L 507.347173 46.60334 L 513.433841 71.00239 L 532.097175 71.00239 L 524.543842 44.251435 C 531.185747 41.517149 536.649081 35.786672 538.183843 24.231433 L 538.471938 22.235719 C 541.096224 2.571908 527.807175 0.0157171 515.811936 0.0157171 L 491.329077 0.0157171 L 482.041933 71.00239 L 499.327649 71.00239 Z M 578.417655 72.264771 C 591.884799 72.264771 598.882895 68.357151 604.346229 63.915246 L 608.636229 31.496672 L 582.775751 31.496672 L 580.774799 46.430483 L 589.328609 46.430483 L 588.150037 55.539531 C 586.32718 56.534769 582.974799 57.35715 580.32956 57.35715 L 579.329084 57.35715 C 570.686226 57.35715 569.041464 49.714769 570.686226 37.321434 L 571.131464 33.874768 C 572.776226 21.591433 575.59956 13.681909 584.242418 13.681909 L 585.237656 13.681909 C 592.062895 13.681909 593.058133 19.12429 591.973847 27.32191 L 609.254325 27.32191 L 609.720515 23.765243 C 611.899563 6.657622 603.167658 -1.246664 585.792894 -1.246664 C 566.668607 -1.246664 556.847178 9.302861 553.578606 33.874768 L 553.112415 37.321434 C 549.849082 61.893341 559.314321 72.264771 578.417655 72.264771 Z M 666.496234 0.0157171 L 662.96052 27.32191 L 645.653851 27.32191 L 649.210518 0.0157171 L 631.924803 0.0157171 L 622.637659 71.00239 L 639.923375 71.00239 L 643.658137 42.250483 L 660.964805 42.250483 L 657.230043 71.00239 L 674.515759 71.00239 L 683.802902 0.0157171 Z M 721.113858 0.0157171 L 703.80719 0.0157171 L 694.540998 71.00239 L 711.826714 71.00239 Z M 741.128621 0.0157171 L 731.841478 71.00239 L 776.428148 71.00239 L 778.340053 56.068579 L 751.03386 56.068579 L 752.856717 42.250483 L 775.605767 42.250483 L 777.606719 27.32191 L 754.85767 27.32191 L 756.502432 14.949528 L 783.803387 14.949528 L 785.715292 0.0157171 Z M 847.231487 27.32191 L 802.194341 9.480956 L 800.083388 26.054291 L 826.032914 35.51953 L 797.553388 44.984768 L 795.353388 61.537151 L 845.052439 43.696197 Z M 847.231487 27.32191 " stroke="#27ae60" stroke-width="5.574234" stroke-opacity="1" stroke-miterlimit="4"/></g></svg>