<svg xmlns="http://www.w3.org/2000/svg" xmlns:xlink="http://www.w3.org/1999/xlink" width="500" zoomAndPan="magnify" viewBox="0 0 375 374.999991" height="500" preserveAspectRatio="xMidYMid meet" version="1.0"><defs><clipPath id="66afd40ab0"><path d="M 15.175781 5.230469 L 360 5.230469 L 360 369.730469 L 15.175781 369.730469 Z M 15.175781 5.230469 " clip-rule="nonzero"/></clipPath><clipPath id="0686b4036a"><path d="M 185 5.230469 L 360 5.230469 L 360 369.730469 L 185 369.730469 Z M 185 5.230469 " clip-rule="nonzero"/></clipPath></defs><g clip-path="url(#66afd40ab0)"><path fill="#e23237" d="M 15.613281 65.652344 L 185.394531 5.226562 L 359.734375 64.578125 L 331.519531 288.964844 L 185.394531 369.792969 L 41.5625 290.03125 L 15.613281 65.65625 Z M 15.613281 65.652344 " fill-opacity="1" fill-rule="nonzero"/></g><g clip-path="url(#0686b4036a)"><path fill="#b52e31" d="M 359.738281 64.578125 L 185.394531 5.226562 L 185.394531 369.78125 L 331.519531 289.078125 L 359.738281 64.582031 L 359.738281 64.574219 Z M 359.738281 64.578125 " fill-opacity="1" fill-rule="nonzero"/></g><path fill="#ffffff" d="M 185.664062 47.792969 L 79.867188 282.914062 L 119.386719 282.238281 L 140.628906 229.207031 L 235.527344 229.207031 L 258.792969 282.914062 L 296.566406 283.585938 L 185.664062 47.792969 L 185.664062 47.800781 Z M 185.933594 123.125 L 221.683594 197.78125 L 154.476562 197.78125 Z M 185.933594 123.125 " fill-opacity="1" fill-rule="nonzero"/></svg>