<svg xmlns="http://www.w3.org/2000/svg" xmlns:xlink="http://www.w3.org/1999/xlink" width="2000" zoomAndPan="magnify" viewBox="0 0 1500 1499.999933" height="2000" preserveAspectRatio="xMidYMid meet" version="1.0"><path fill="#ffde59" d="M 616.667969 450 C 524.640625 450 450.007812 524.640625 450.007812 616.667969 L 450.007812 883.304688 C 450.007812 975.332031 524.640625 1049.972656 616.667969 1049.972656 L 883.304688 1049.972656 C 975.332031 1049.972656 1049.972656 975.332031 1049.972656 883.304688 L 1049.972656 616.667969 C 1049.972656 524.640625 975.332031 450 883.304688 450 Z M 949.96875 516.664062 C 968.375 516.664062 983.304688 531.589844 983.304688 549.996094 C 983.304688 568.390625 968.375 583.332031 949.96875 583.332031 C 931.574219 583.332031 916.632812 568.390625 916.632812 549.996094 C 916.632812 531.589844 931.574219 516.664062 949.96875 516.664062 Z M 749.988281 583.324219 C 842.011719 583.324219 916.640625 657.957031 916.640625 749.980469 C 916.640625 842.003906 842.011719 916.632812 749.988281 916.632812 C 657.960938 916.632812 583.332031 842.003906 583.332031 749.980469 C 583.332031 657.957031 657.960938 583.324219 749.988281 583.324219 Z M 749.988281 649.980469 C 694.789062 649.980469 650.003906 694.769531 650.003906 749.980469 C 650.003906 805.179688 694.789062 849.964844 749.988281 849.964844 C 805.199219 849.964844 849.984375 805.179688 849.984375 749.980469 C 849.984375 694.769531 805.199219 649.980469 749.988281 649.980469 Z M 749.988281 649.980469 " fill-opacity="1" fill-rule="nonzero"/></svg>