<svg xmlns="http://www.w3.org/2000/svg" xmlns:xlink="http://www.w3.org/1999/xlink" width="2000" zoomAndPan="magnify" viewBox="0 0 1500 1499.999933" height="2000" preserveAspectRatio="xMidYMid meet" version="1.0"><path fill="#ffde59" d="M 999.875 450 L 500.425781 450 C 472.8125 450 450.601562 472.511719 450.601562 499.824219 L 450.601562 1000.175781 C 450.601562 1027.789062 473.113281 1050 500.425781 1050 L 999.574219 1050 C 1027.1875 1050 1049.398438 1027.488281 1049.398438 1000.175781 L 1049.398438 499.824219 C 1049.699219 472.511719 1027.488281 450 999.875 450 Z M 627.988281 944.949219 L 539.445312 944.949219 L 539.445312 679.015625 L 627.988281 679.015625 Z M 583.566406 646.898438 C 555.652344 646.898438 533.140625 624.386719 533.140625 596.472656 C 533.140625 568.558594 555.652344 546.046875 583.566406 546.046875 C 611.480469 546.046875 633.992188 568.558594 633.992188 596.472656 C 633.992188 624.386719 611.480469 646.898438 583.566406 646.898438 Z M 961.15625 944.949219 L 872.3125 944.949219 L 870.210938 787.070312 C 870.210938 787.070312 872.3125 745.046875 826.386719 745.347656 C 780.464844 745.648438 774.160156 787.070312 774.160156 787.070312 L 774.160156 944.949219 L 684.71875 944.949219 L 684.71875 679.015625 L 770.558594 679.015625 L 770.558594 715.632812 C 770.558594 715.632812 774.160156 703.625 793.972656 689.519531 C 813.78125 675.414062 846.5 672.410156 860.605469 673.011719 C 874.710938 673.613281 893.921875 671.210938 926.039062 693.421875 C 960.554688 717.132812 961.457031 779.265625 961.457031 779.265625 Z M 961.15625 944.949219 " fill-opacity="1" fill-rule="nonzero"/></svg>