<svg xmlns="http://www.w3.org/2000/svg" xmlns:xlink="http://www.w3.org/1999/xlink" width="500" zoomAndPan="magnify" viewBox="0 0 375 374.999991" height="500" preserveAspectRatio="xMidYMid meet" version="1.0"><defs><clipPath id="8d5fe8d3aa"><path d="M 112.5 112.773438 L 262.5 112.773438 L 262.5 262.023438 L 112.5 262.023438 Z M 112.5 112.773438 " clip-rule="nonzero"/></clipPath></defs><path fill="#008037" d="M 199.4375 187.480469 L 260.472656 248.433594 L 248.535156 260.355469 L 187.5 199.402344 L 126.464844 260.355469 L 114.527344 248.433594 L 175.5625 187.480469 L 114.527344 126.527344 L 126.464844 114.605469 L 187.5 175.558594 L 248.535156 114.605469 L 260.472656 126.527344 Z M 199.4375 187.480469 " fill-opacity="1" fill-rule="nonzero"/><g clip-path="url(#8d5fe8d3aa)"><path fill="#08fd0c" d="M 248.535156 262.023438 C 248.109375 262.023438 247.679688 261.859375 247.355469 261.535156 L 187.5 201.761719 L 127.644531 261.535156 C 127.332031 261.847656 126.90625 262.023438 126.464844 262.023438 C 126.023438 262.023438 125.597656 261.847656 125.285156 261.535156 L 113.347656 249.613281 C 112.695312 248.964844 112.695312 247.910156 113.347656 247.257812 L 173.203125 187.480469 L 113.347656 127.707031 C 112.695312 127.054688 112.695312 126.003906 113.347656 125.347656 L 125.285156 113.425781 C 125.597656 113.113281 126.023438 112.9375 126.464844 112.9375 C 126.90625 112.9375 127.332031 113.113281 127.644531 113.425781 L 187.5 173.203125 L 247.355469 113.425781 C 248.003906 112.777344 249.058594 112.777344 249.714844 113.425781 L 261.652344 125.347656 C 262.304688 126 262.304688 127.050781 261.652344 127.707031 L 201.796875 187.480469 L 261.652344 247.257812 C 261.964844 247.566406 262.140625 247.992188 262.140625 248.433594 C 262.140625 248.875 261.964844 249.300781 261.652344 249.613281 L 249.714844 261.535156 C 249.390625 261.859375 248.960938 262.023438 248.535156 262.023438 Z M 187.5 197.738281 C 187.925781 197.738281 188.355469 197.898438 188.679688 198.226562 L 248.535156 258 L 258.113281 248.433594 L 198.257812 188.660156 C 197.945312 188.347656 197.769531 187.921875 197.769531 187.480469 C 197.769531 187.039062 197.945312 186.613281 198.257812 186.300781 L 258.113281 126.527344 L 248.535156 116.960938 L 188.679688 176.738281 C 188.03125 177.386719 186.96875 177.386719 186.320312 176.738281 L 126.464844 116.960938 L 116.886719 126.527344 L 176.742188 186.300781 C 177.390625 186.953125 177.390625 188.003906 176.742188 188.660156 L 116.886719 248.433594 L 126.464844 258 L 186.320312 198.226562 C 186.644531 197.898438 187.074219 197.738281 187.5 197.738281 Z M 187.5 197.738281 " fill-opacity="1" fill-rule="nonzero"/></g></svg>