<svg xmlns="http://www.w3.org/2000/svg" xmlns:xlink="http://www.w3.org/1999/xlink" width="700" zoomAndPan="magnify" viewBox="0 0 525 149.999998" height="200" preserveAspectRatio="xMidYMid meet" version="1.0"><path stroke-linecap="butt" transform="matrix(1.362164, 0, 0, 1.362164, 14.950668, 44.280568)" fill="none" stroke-linejoin="miter" d="M 5.940767 14.404852 L 3.867435 29.996423 L 46.670413 46.987422 L 48.763818 31.22379 L 24.053028 22.210675 L 51.175536 13.197559 L 53.165706 -2.583278 Z M 79.688869 20.644922 C 81.254622 8.947659 83.413984 1.414266 91.644223 1.414266 L 92.596292 1.414266 C 99.111659 1.414266 99.702401 6.59903 98.667169 14.404852 L 115.127647 14.404852 L 115.572137 11.020991 C 117.645469 -5.270294 109.584423 -12.803686 93.123945 -12.803686 C 74.928522 -12.803686 66.0846 -2.752471 62.976036 20.644922 L 62.531545 23.925547 C 59.420114 47.325808 67.56719 57.204962 85.759746 57.204962 C 100.929768 57.204962 110.705686 50.878862 112.629898 33.383152 L 112.715929 32.600276 L 96.235377 32.600276 C 95.472575 38.671152 92.954752 43.009951 87.136232 43.009951 L 86.184162 43.009951 C 78.398414 43.009951 77.701568 35.731781 79.26732 23.925547 Z M 156.817965 -12.803686 C 138.622541 -12.803686 129.778619 -2.752471 126.667187 20.644922 L 126.222697 23.925547 C 123.114133 47.325808 131.258341 57.204962 149.453765 57.204962 C 167.649188 57.204962 176.40708 47.156615 179.518512 23.756354 L 179.963002 20.475729 C 183.071566 -2.921664 175.01052 -12.803686 156.817965 -12.803686 Z M 149.878181 43.009951 C 142.092433 43.009951 141.392719 35.731781 142.958472 23.925547 L 143.382888 20.644922 C 144.948641 8.861629 147.549626 1.414266 155.335374 1.414266 L 156.287444 1.414266 C 164.093266 1.414266 164.79298 8.692436 163.227227 20.475729 L 162.802811 23.756354 C 161.237058 35.539647 158.636073 43.009951 150.830251 43.009951 Z M 244.43703 20.475729 C 247.545594 -2.921664 240.267425 -11.596394 219.026526 -11.596394 L 197.805701 -11.596394 L 188.961779 56.000537 L 211.071584 56.000537 C 232.292409 56.000537 240.881108 47.156615 243.99254 23.756354 Z M 207.243233 41.782584 L 212.445203 2.621559 L 216.339511 2.621559 C 227.615225 2.621559 229.267008 8.778466 227.701255 20.475729 L 227.276839 23.756354 C 225.711086 35.456484 223.279294 41.782584 212.023654 41.782584 Z M 262.365759 -11.596394 L 253.521837 56.000537 L 295.983561 56.000537 L 297.804537 41.782584 L 271.800423 41.782584 L 273.535369 28.622805 L 295.200684 28.622805 L 297.104823 14.404852 L 275.439508 14.404852 L 277.005261 2.621559 L 303.009374 2.621559 L 304.827483 -11.596394 Z M 359.938538 14.404852 L 317.052398 -2.583278 L 315.042155 13.197559 L 339.752946 22.210675 L 312.630437 31.22379 L 310.534164 46.987422 L 357.865207 29.996423 Z M 359.938538 14.404852 " stroke="#ffcc01" stroke-width="5.307937" stroke-opacity="1" stroke-miterlimit="4"/></svg>