<svg xmlns="http://www.w3.org/2000/svg" xmlns:xlink="http://www.w3.org/1999/xlink" width="500" zoomAndPan="magnify" viewBox="0 0 375 374.999991" height="500" preserveAspectRatio="xMidYMid meet" version="1.0"><defs><clipPath id="64979bf886"><path d="M 37.5 22 L 337.5 22 L 337.5 363.984375 L 37.5 363.984375 Z M 37.5 22 " clip-rule="nonzero"/></clipPath><clipPath id="2781d138eb"><path d="M 28.710938 17.582031 L 345.960938 17.582031 L 345.960938 372.332031 L 28.710938 372.332031 Z M 28.710938 17.582031 " clip-rule="nonzero"/></clipPath></defs><g clip-path="url(#64979bf886)"><path fill="#e44d26" d="M 64.734375 329.050781 L 37.414062 22.9375 L 337.585938 22.9375 L 310.246094 329.007812 L 187.308594 363.039062 Z M 64.734375 329.050781 " fill-opacity="1" fill-rule="nonzero"/></g><path fill="#f16529" d="M 286.828125 309.515625 L 310.203125 47.96875 L 187.5 47.96875 L 187.5 337.03125 Z M 286.828125 309.515625 " fill-opacity="1" fill-rule="nonzero"/><path fill="#ebebeb" d="M 187.371094 85.507812 L 93.265625 85.507812 L 103.402344 199.042969 L 187.5 199.042969 L 187.5 161.5 L 137.777344 161.5 L 134.339844 123.058594 L 187.5 123.058594 L 187.5 85.507812 Z M 187.5 258.878906 L 187.339844 258.921875 L 145.488281 247.636719 L 142.828125 217.695312 L 105.085938 217.695312 L 110.351562 276.640625 L 187.328125 297.898438 L 187.5 297.84375 Z M 187.5 258.878906 " fill-opacity="1" fill-rule="nonzero"/><path fill="#ffffff" d="M 187.371094 199.042969 L 233.648438 199.042969 L 229.394531 247.71875 L 187.480469 259.019531 L 187.480469 298.078125 L 264.519531 276.746094 L 274.839844 161.480469 L 187.5 161.480469 Z M 280.605469 95.585938 L 281.5 85.507812 L 187.351562 85.507812 L 187.351562 123.046875 L 278.117188 123.046875 L 278.863281 114.609375 Z M 280.605469 95.585938 " fill-opacity="1" fill-rule="nonzero"/><g clip-path="url(#2781d138eb)"><path fill="#0277bd" d="M 345.910156 17.582031 L 28.757812 17.582031 L 56.742188 334.988281 L 187.335938 372.332031 L 317.925781 334.988281 Z M 345.910156 17.582031 " fill-opacity="1" fill-rule="nonzero"/></g><path fill="#039be5" d="M 187.335938 45.585938 L 187.335938 343.390625 L 291.808594 313.515625 L 315.128906 45.585938 Z M 187.335938 45.585938 " fill-opacity="1" fill-rule="nonzero"/><path fill="#ffffff" d="M 272.21875 92.265625 L 187.335938 92.265625 L 187.335938 129.605469 L 233.042969 129.605469 L 230.242188 166.949219 L 187.335938 166.949219 L 187.335938 204.292969 L 228.378906 204.292969 L 225.578125 246.300781 L 187.335938 259.371094 L 187.335938 298.578125 L 261.027344 274.308594 L 267.554688 166.949219 Z M 272.21875 92.265625 " fill-opacity="1" fill-rule="nonzero"/><path fill="#eeeeee" d="M 187.335938 92.265625 L 187.335938 129.605469 L 104.316406 129.605469 L 101.515625 92.265625 Z M 144.425781 166.949219 L 146.292969 204.292969 L 187.335938 204.292969 L 187.335938 166.949219 Z M 148.15625 222.960938 L 110.84375 222.960938 L 113.644531 274.308594 L 187.335938 298.578125 L 187.335938 259.371094 L 149.089844 246.300781 Z M 148.15625 222.960938 " fill-opacity="1" fill-rule="nonzero"/></svg>