<svg xmlns="http://www.w3.org/2000/svg" xmlns:xlink="http://www.w3.org/1999/xlink" width="900" zoomAndPan="magnify" viewBox="0 0 675 202.499994" height="270" preserveAspectRatio="xMidYMid meet" version="1.0"><defs><clipPath id="e861292e4b"><path d="M 0.832031 0 L 281 0 L 281 84 L 0.832031 84 Z M 0.832031 0 " clip-rule="nonzero"/></clipPath><clipPath id="a06f1898d5"><path d="M 0.832031 53 L 674.167969 53 L 674.167969 151 L 0.832031 151 Z M 0.832031 53 " clip-rule="nonzero"/></clipPath><clipPath id="c3aa95a147"><path d="M 0.832031 120 L 498 120 L 498 202 L 0.832031 202 Z M 0.832031 120 " clip-rule="nonzero"/></clipPath></defs><g clip-path="url(#e861292e4b)"><path stroke-linecap="butt" transform="matrix(0.971523, 0, 0, 0.971523, 4.244364, 10.470763)" fill="none" stroke-linejoin="miter" d="M 6.869222 -0.995197 L 0.066112 51.001148 L 12.727455 51.001148 L 15.461565 29.940457 L 32.127576 29.940457 L 33.591129 19.004016 L 16.925119 19.004016 L 18.131344 9.941244 L 38.130556 9.941244 L 39.529778 -0.995197 Z M 58.797214 22.208554 L 60.457784 9.941244 L 66.251685 9.941244 C 68.724446 9.941244 71.329893 10.737353 70.855444 15.666793 L 70.791112 16.40259 C 70.320684 21.203366 67.063877 22.208554 64.591115 22.208554 Z M 57.397992 33.128912 L 60.928211 33.128912 L 65.387224 51.001148 L 79.057775 51.001148 L 73.525222 31.40401 C 78.39033 29.405697 82.394998 25.204013 83.516787 16.744354 L 83.729887 15.27678 C 85.647785 0.874452 75.917569 -0.995197 67.128209 -0.995197 L 49.195662 -0.995197 L 42.392552 51.001148 L 55.053895 51.001148 Z M 115.316902 -1.92399 C 101.32067 -1.92399 94.51756 5.807913 92.125214 23.804792 L 91.78345 26.329823 C 89.391104 44.326702 95.659454 51.92592 109.655686 51.92592 C 123.651918 51.92592 130.386675 44.198038 132.779022 26.197138 L 133.120785 23.676128 C 135.513132 5.675228 129.313135 -1.92399 115.316902 -1.92399 Z M 109.981367 41.005562 C 103.990448 41.005562 103.455689 35.408677 104.657893 26.329823 L 104.983574 23.804792 C 106.189799 14.74202 108.188112 9.012451 114.17903 9.012451 L 114.910807 9.012451 C 120.917808 9.012451 121.452568 14.609335 120.250363 23.676128 L 119.924682 26.197138 C 118.718457 35.26393 116.716124 41.005562 110.713143 41.005562 Z M 184.308959 21.006349 L 182.636327 30.997914 L 180.046964 51.001148 L 192.708307 51.001148 L 199.511417 -0.995197 L 180.650076 -0.995197 L 169.239187 28.99558 L 165.708968 -0.995197 L 146.847627 -0.995197 L 140.044518 51.001148 L 152.705861 51.001148 L 155.311307 30.997914 L 156.320515 21.006349 L 159.850734 51.001148 L 172.90209 51.001148 Z M 261.563658 13.66848 C 262.765862 4.66602 256.827214 -1.92399 245.629424 -1.92399 C 233.961206 -1.92399 228.167305 4.340339 226.896748 13.66848 L 223.901289 36.337471 C 222.699084 45.33591 228.637733 51.92592 239.835523 51.92592 C 251.50374 51.92592 257.297642 45.661591 258.568199 36.337471 Z M 246.168205 36.337471 C 245.758088 39.33293 243.968854 41.138247 240.828648 41.138247 L 240.567299 41.138247 C 237.427093 41.138247 235.899208 39.135913 236.305304 36.337471 L 239.300763 13.66848 C 239.706859 10.673021 241.496093 8.863683 244.636299 8.863683 L 244.897647 8.863683 C 248.037853 8.863683 249.569759 10.866017 249.159643 13.66848 Z M 246.168205 36.337471 " stroke="#ffcc01" stroke-width="4.082968" stroke-opacity="1" stroke-miterlimit="4"/></g><g clip-path="url(#a06f1898d5)"><path stroke-linecap="butt" transform="matrix(0.971523, 0, 0, 0.971523, 4.244364, 10.470763)" fill="none" stroke-linejoin="miter" d="M 27.471547 78.941342 L 39.123682 78.941342 L 40.522903 68.004901 L 4.541207 68.004901 L 3.141986 78.941342 L 14.794121 78.941342 L 9.406315 120.001246 L 22.067658 120.001246 Z M 68.660114 67.076108 C 54.663882 67.076108 47.860772 74.80399 45.468426 92.80489 L 45.126662 95.329921 C 42.734316 113.3268 48.998645 120.926018 62.994877 120.926018 C 76.991109 120.926018 83.729887 113.198136 86.122234 95.197236 L 86.463997 92.676226 C 88.856344 74.675326 82.656347 67.076108 68.660114 67.076108 Z M 63.320558 110.00566 C 57.32964 110.00566 56.79488 104.408776 57.997084 95.329921 L 58.322765 92.80489 C 59.52899 83.742118 61.531324 78.012549 67.518221 78.012549 L 68.249998 78.012549 C 74.256999 78.012549 74.79578 83.609434 73.589554 92.676226 L 73.263874 95.197236 C 72.061669 104.264029 70.059336 110.00566 64.052334 110.00566 Z M 118.51742 68.004901 L 111.71431 120.001246 L 124.375653 120.001246 L 127.109763 98.940555 L 143.775774 98.940555 L 145.239327 88.004114 L 128.577337 88.004114 L 129.779542 78.941342 L 149.782775 78.941342 L 151.181996 68.004901 Z M 170.445412 91.208652 L 172.105982 78.941342 L 177.899883 78.941342 C 180.372644 78.941342 182.978091 79.737451 182.507663 84.666891 L 182.443331 85.398667 C 181.968882 90.203464 178.716095 91.208652 176.239313 91.208652 Z M 169.04619 102.12901 L 172.58043 102.12901 L 177.039442 120.001246 L 190.709994 120.001246 L 185.177441 100.404108 C 190.042549 98.405795 194.043196 94.204111 195.169006 85.740431 L 195.378085 84.276878 C 197.300004 69.87455 187.569788 68.004901 178.780427 68.004901 L 160.84386 68.004901 L 154.04075 120.001246 L 166.702093 120.001246 Z M 226.969121 67.076108 C 212.972889 67.076108 206.169779 74.80399 203.777433 92.80489 L 203.435669 95.329921 C 201.043322 113.3268 207.307652 120.926018 221.303884 120.926018 C 235.300116 120.926018 242.038894 113.198136 244.43124 95.197236 L 244.773004 92.676226 C 247.165351 74.675326 240.965353 67.076108 226.969121 67.076108 Z M 221.629565 110.00566 C 215.642667 110.00566 215.103887 104.408776 216.310112 95.329921 L 216.635793 92.80489 C 217.837997 83.742118 219.840331 78.012549 225.831249 78.012549 L 226.563025 78.012549 C 232.566006 78.012549 233.104786 83.609434 231.898561 92.676226 L 231.57288 95.197236 C 230.370676 104.264029 228.368342 110.00566 222.361341 110.00566 Z M 297.830827 68.004901 L 285.820845 68.004901 L 283.364167 86.669225 L 282.41929 96.660789 L 271.824613 68.004901 L 258.495825 68.004901 L 251.696736 120.001246 L 263.690635 120.001246 L 266.099064 101.332901 L 267.09219 91.341337 L 277.70295 120.001246 L 291.031738 120.001246 Z M 330.093328 78.941342 L 341.745463 78.941342 L 343.144684 68.004901 L 307.162989 68.004901 L 305.763767 78.941342 L 317.415902 78.941342 L 312.028097 120.001246 L 324.68944 120.001246 Z M 347.342348 102.000346 L 366.006671 102.000346 L 367.405892 91.341337 L 348.757652 91.341337 Z M 381.478519 68.004901 L 374.675409 120.001246 L 407.339986 120.001246 L 408.739207 109.064805 L 388.735973 109.064805 L 390.070863 98.940555 L 406.736873 98.940555 L 408.200426 88.004114 L 391.538436 88.004114 L 392.740641 78.941342 L 412.743874 78.941342 L 414.143095 68.004901 Z M 464.474849 68.004901 L 452.464868 68.004901 L 450.008189 86.669225 L 449.063313 96.660789 L 438.468635 68.004901 L 425.139848 68.004901 L 418.336738 120.001246 L 430.330637 120.001246 L 432.739066 101.332901 L 433.732191 91.341337 L 444.342952 120.001246 L 457.67174 120.001246 Z M 512.000119 92.676226 C 514.392466 74.675326 508.795581 68.004901 492.455252 68.004901 L 476.131005 68.004901 L 469.327895 120.001246 L 486.335669 120.001246 C 502.659916 120.001246 509.266009 113.198136 511.658356 95.197236 Z M 483.39248 109.064805 L 487.393127 78.941342 L 490.388586 78.941342 C 499.061345 78.941342 500.331902 83.673766 499.129697 92.676226 L 498.804016 95.197236 C 497.597791 104.195676 495.728142 109.064805 487.067446 109.064805 Z M 561.781031 68.004901 L 557.257686 102.667791 C 556.654574 107.207218 555.448349 110.00566 552.324225 110.00566 C 549.184019 110.00566 549.055355 107.207218 549.718779 102.000346 L 537.724881 102.000346 L 537.45147 104.00268 C 536.048228 114.810457 539.646799 120.926018 551.656781 120.926018 C 562.983235 120.926018 568.322791 114.810457 569.722013 104.131344 L 574.458457 68.004901 Z M 604.577898 67.076108 C 590.585687 67.076108 583.782577 74.80399 581.39023 92.80489 L 581.048467 95.329921 C 578.65612 113.3268 584.920449 120.926018 598.916682 120.926018 C 612.912914 120.926018 619.651691 113.198136 622.044038 95.197236 L 622.385802 92.676226 C 624.778148 74.675326 618.57413 67.076108 604.577898 67.076108 Z M 599.242362 110.00566 C 593.251444 110.00566 592.716684 104.408776 593.918889 95.329921 L 594.24457 92.80489 C 595.450795 83.742118 597.453128 78.012549 603.440026 78.012549 L 604.171802 78.012549 C 610.178803 78.012549 610.713563 83.609434 609.511359 92.676226 L 609.185678 95.197236 C 607.979453 104.264029 605.98114 110.00566 599.974139 110.00566 Z M 636.108623 68.004901 L 629.305513 120.001246 L 647.973858 120.001246 C 656.24052 120.001246 666.638181 118.127576 667.97307 104.53744 L 668.105755 103.206571 C 668.640515 97.867015 666.89953 94.935888 663.839739 93.130571 C 666.638181 91.341337 668.704847 88.607226 669.307959 84.196463 L 669.504976 82.73291 C 671.310293 69.677533 662.376186 68.004901 654.435203 68.004901 Z M 651.033649 98.940555 C 653.100314 98.940555 655.70174 99.543668 655.311727 103.596584 L 655.231312 104.328361 C 654.841299 108.39736 651.765425 109.064805 649.698759 109.064805 L 643.366078 109.064805 L 644.700967 98.940555 Z M 652.838966 78.941342 C 654.841299 78.941342 656.972297 79.476102 656.630533 83.139006 L 656.566201 83.870782 C 656.24052 87.469354 653.50641 88.004114 651.63274 88.004114 L 646.16452 88.004114 L 647.370745 78.941342 Z M 652.838966 78.941342 " stroke="#ffcc01" stroke-width="4.082968" stroke-opacity="1" stroke-miterlimit="4"/></g><g clip-path="url(#c3aa95a147)"><path stroke-linecap="butt" transform="matrix(0.971523, 0, 0, 0.971523, 4.244364, 10.470763)" fill="none" stroke-linejoin="miter" d="M 19.872329 137.004999 L 7.194903 137.004999 L 0.407876 189.001344 L 13.069219 189.001344 Z M 71.201229 137.004999 L 59.187226 137.004999 L 56.730548 155.669323 L 55.785672 165.660888 L 45.190994 137.004999 L 31.866227 137.004999 L 25.063117 189.001344 L 37.057016 189.001344 L 39.465446 170.333 L 40.458571 160.341435 L 51.069331 189.001344 L 64.398119 189.001344 Z M 132.988101 136.076206 C 121.854643 136.076206 113.246216 137.475427 106.053093 145.138977 C 99.314316 152.3321 96.990322 159.13521 95.912761 169.275542 L 95.784097 170.530016 C 94.581892 181.936885 99.788764 189.926116 112.124427 189.926116 C 123.450881 189.926116 129.783563 183.533123 130.78875 173.408874 L 130.921435 172.073985 C 131.91456 161.933652 127.322863 156.208103 118.453088 156.208103 C 115.78733 156.208103 113.181884 156.875548 111.115218 158.536118 C 111.911327 155.733655 113.246216 153.799674 114.778122 152.267768 C 118.911453 148.267121 123.579545 147.076979 131.524547 147.012647 Z M 113.913661 166.931445 L 114.255424 166.931445 C 116.925203 166.931445 118.991868 168.543766 118.521441 172.528329 L 118.453088 173.264127 C 118.046992 176.874761 115.445566 179.138443 112.643103 179.138443 L 112.253091 179.138443 C 109.454648 179.138443 107.452315 176.597329 108.055427 171.603557 L 108.252444 169.942987 C 109.844661 167.795906 112.124427 166.931445 113.913661 166.931445 Z M 201.976137 159.006546 L 200.299484 168.99811 L 197.71012 189.001344 L 210.371463 189.001344 L 217.174573 137.004999 L 198.313233 137.004999 L 186.906364 166.995777 L 183.372124 137.004999 L 164.510784 137.004999 L 157.707674 189.001344 L 170.369017 189.001344 L 172.974464 168.99811 L 173.983672 159.006546 L 177.513891 189.001344 L 190.565247 189.001344 Z M 247.631758 136.076206 C 233.635525 136.076206 226.832416 143.804088 224.440069 161.804988 L 224.098305 164.325998 C 221.705959 182.326898 227.974309 189.926116 241.970541 189.926116 C 255.966773 189.926116 262.70153 182.198234 265.093877 164.197334 L 265.435641 161.676324 C 267.827987 143.675424 261.62799 136.076206 247.631758 136.076206 Z M 242.296222 179.005758 C 236.305304 179.005758 235.766523 173.408874 236.972748 164.325998 L 237.298429 161.804988 C 238.500633 152.742216 240.502967 147.012647 246.493885 147.012647 L 247.225662 147.012647 C 253.232663 147.012647 253.767423 152.609532 252.565218 161.676324 L 252.239538 164.197334 C 251.033313 173.264127 249.030979 179.005758 243.027998 179.005758 Z M 318.497484 137.004999 L 306.487503 137.004999 L 304.026803 155.669323 L 303.085948 165.660888 L 292.49127 137.004999 L 279.162483 137.004999 L 272.359373 189.001344 L 284.353271 189.001344 L 286.761701 170.333 L 287.754826 160.341435 L 298.365587 189.001344 L 311.694374 189.001344 Z M 350.755965 147.94144 L 362.4081 147.94144 L 363.807321 137.004999 L 327.825625 137.004999 L 326.426404 147.94144 L 338.078539 147.94144 L 332.690733 189.001344 L 345.352076 189.001344 Z M 398.47021 137.004999 L 395.880847 157.004212 L 383.203421 157.004212 L 385.808867 137.004999 L 373.147524 137.004999 L 366.344414 189.001344 L 379.005757 189.001344 L 381.739868 167.940653 L 394.417294 167.940653 L 391.683183 189.001344 L 404.344527 189.001344 L 411.147636 137.004999 Z M 434.411698 168.069317 C 441.472136 168.99811 442.742693 171.064776 442.465261 173.670222 L 442.400929 174.337667 C 442.139581 176.874761 440.2056 179.005758 435.875251 179.005758 L 435.207807 179.005758 C 430.877459 179.005758 428.943478 176.730014 429.675254 171.000444 L 417.013911 171.000444 L 416.865143 172.073985 C 415.337258 184.132215 421.879019 189.926116 434.540362 189.926116 C 446.79561 189.926116 454.133479 184.735328 455.21104 174.94078 L 455.339704 173.734554 C 456.461494 163.807322 451.532054 159.396558 440.398596 157.868673 C 433.531154 156.93988 432.409365 155.134563 432.670713 152.3321 L 432.735045 151.664655 C 433.012477 149.079313 435.143475 147.012647 438.806379 147.012647 L 439.469802 147.012647 C 444.141914 147.012647 445.476803 149.811089 444.664612 155.669323 L 457.342038 155.669323 L 457.535034 154.077106 C 459.002608 142.211871 453.598719 136.076206 440.611695 136.076206 C 427.608589 136.076206 420.869811 142.340535 419.876685 151.535991 L 419.731938 152.742216 C 418.674481 162.130669 423.27824 166.605764 434.411698 168.069317 Z M 468.789115 137.004999 L 467.389893 173.002778 L 476.066673 173.002778 L 484.136319 137.004999 Z M 477.65889 176.340001 L 464.997547 176.340001 L 463.336977 189.001344 L 475.99832 189.001344 Z M 477.65889 176.340001 " stroke="#ffcc01" stroke-width="4.082968" stroke-opacity="1" stroke-miterlimit="4"/></g></svg>