<svg xmlns="http://www.w3.org/2000/svg" xmlns:xlink="http://www.w3.org/1999/xlink" width="500" zoomAndPan="magnify" viewBox="0 0 375 374.999991" height="500" preserveAspectRatio="xMidYMid meet" version="1.0"><path fill="#178768" d="M 133.28125 110.136719 C 120.84375 116.710938 119.109375 125.21875 102.308594 152.992188 C 76.804688 195.128906 72.679688 188.921875 61.023438 212.507812 C 53.878906 226.949219 28.1875 284.390625 53.867188 321.214844 C 61.011719 331.457031 69.433594 336.230469 82.464844 343.429688 C 139.570312 375 199.933594 367.8125 234.175781 363.273438 C 267.789062 358.828125 289.796875 355.582031 308.8125 337.085938 C 312 333.929688 314.929688 330.546875 317.597656 326.941406 C 320.269531 323.335938 322.648438 319.546875 324.734375 315.578125 C 326.824219 311.605469 328.597656 307.5 330.054688 303.257812 C 331.515625 299.015625 332.640625 294.6875 333.433594 290.273438 C 337.535156 266.019531 329.195312 247.898438 314.371094 215.675781 C 309.628906 205.359375 295.859375 185 268.320312 144.257812 C 256.371094 126.585938 249.945312 117.539062 237.355469 111.722656 C 228.996094 107.875 223.648438 108.089844 195.265625 107.761719 C 144.148438 107.160156 140.828125 106.191406 133.28125 110.136719 Z M 133.28125 110.136719 " fill-opacity="1" fill-rule="nonzero"/><path fill="#f2ce80" d="M 190.199219 247.546875 C 190.75 247.542969 191.296875 247.570312 191.847656 247.625 C 192.394531 247.679688 192.9375 247.757812 193.476562 247.867188 C 194.015625 247.972656 194.550781 248.105469 195.078125 248.265625 C 195.605469 248.425781 196.121094 248.609375 196.628906 248.820312 C 197.140625 249.027344 197.636719 249.261719 198.121094 249.523438 C 198.605469 249.78125 199.078125 250.0625 199.535156 250.367188 C 199.996094 250.675781 200.4375 251 200.863281 251.347656 C 201.289062 251.699219 201.695312 252.066406 202.085938 252.457031 C 202.472656 252.84375 202.84375 253.25 203.191406 253.675781 C 203.542969 254.101562 203.871094 254.542969 204.175781 255 C 204.480469 255.457031 204.765625 255.925781 205.023438 256.410156 C 205.285156 256.898438 205.519531 257.394531 205.730469 257.902344 C 205.941406 258.410156 206.125 258.925781 206.285156 259.453125 C 206.445312 259.976562 206.582031 260.511719 206.6875 261.050781 C 206.796875 261.589844 206.875 262.132812 206.929688 262.679688 C 206.984375 263.226562 207.011719 263.777344 207.011719 264.328125 C 207.011719 264.875 206.984375 265.425781 206.933594 265.972656 C 206.878906 266.519531 206.796875 267.0625 206.691406 267.601562 C 206.582031 268.140625 206.449219 268.675781 206.292969 269.203125 C 206.132812 269.726562 205.945312 270.246094 205.734375 270.753906 C 205.527344 271.261719 205.292969 271.757812 205.03125 272.242188 C 204.773438 272.726562 204.492188 273.199219 204.183594 273.65625 C 203.878906 274.113281 203.550781 274.554688 203.203125 274.980469 C 202.855469 275.40625 202.484375 275.8125 202.097656 276.203125 C 201.707031 276.589844 201.300781 276.960938 200.875 277.308594 C 200.449219 277.660156 200.007812 277.984375 199.550781 278.292969 C 199.09375 278.597656 198.621094 278.878906 198.136719 279.140625 C 197.652344 279.398438 197.152344 279.632812 196.644531 279.84375 C 196.136719 280.054688 195.621094 280.238281 195.09375 280.398438 C 194.566406 280.558594 194.035156 280.695312 193.492188 280.800781 C 192.953125 280.910156 192.410156 280.988281 191.863281 281.042969 C 191.316406 281.097656 190.765625 281.125 190.214844 281.125 C 189.664062 281.125 189.117188 281.097656 188.570312 281.042969 C 188.019531 280.988281 187.476562 280.910156 186.9375 280.800781 C 186.398438 280.695312 185.863281 280.5625 185.335938 280.402344 C 184.8125 280.242188 184.292969 280.058594 183.785156 279.847656 C 183.277344 279.636719 182.78125 279.402344 182.292969 279.144531 C 181.808594 278.882812 181.335938 278.601562 180.878906 278.296875 C 180.421875 277.992188 179.980469 277.664062 179.554688 277.316406 C 179.128906 276.964844 178.722656 276.597656 178.332031 276.207031 C 177.945312 275.820312 177.574219 275.414062 177.226562 274.988281 C 176.875 274.5625 176.546875 274.121094 176.242188 273.664062 C 175.9375 273.207031 175.65625 272.734375 175.394531 272.25 C 175.136719 271.765625 174.898438 271.269531 174.691406 270.761719 C 174.480469 270.253906 174.292969 269.734375 174.132812 269.210938 C 173.972656 268.683594 173.839844 268.148438 173.734375 267.609375 C 173.625 267.070312 173.546875 266.527344 173.492188 265.980469 C 173.4375 265.433594 173.410156 264.886719 173.410156 264.335938 L 151.265625 266.246094 C 151.265625 267.457031 151.324219 268.667969 151.445312 269.871094 C 151.5625 271.078125 151.742188 272.277344 151.980469 273.464844 C 152.214844 274.652344 152.511719 275.828125 152.863281 276.988281 C 153.214844 278.148438 153.625 279.289062 154.089844 280.40625 C 154.554688 281.527344 155.070312 282.621094 155.644531 283.691406 C 156.214844 284.757812 156.839844 285.796875 157.511719 286.804688 C 158.1875 287.8125 158.910156 288.785156 159.679688 289.722656 C 160.449219 290.65625 161.261719 291.554688 162.121094 292.410156 C 162.980469 293.269531 163.875 294.082031 164.816406 294.847656 C 165.753906 295.617188 166.726562 296.339844 167.734375 297.011719 C 168.742188 297.683594 169.78125 298.308594 170.851562 298.878906 C 171.921875 299.449219 173.019531 299.964844 174.140625 300.429688 C 175.257812 300.894531 176.398438 301.300781 177.5625 301.652344 C 178.722656 302.003906 179.898438 302.296875 181.085938 302.535156 C 182.277344 302.769531 183.476562 302.945312 184.683594 303.066406 C 185.890625 303.183594 187.097656 303.242188 188.3125 303.242188 C 189.527344 303.242188 190.734375 303.183594 191.941406 303.0625 C 193.148438 302.945312 194.347656 302.765625 195.539062 302.527344 C 196.726562 302.292969 197.902344 301.996094 199.0625 301.644531 C 200.222656 301.292969 201.363281 300.882812 202.484375 300.421875 C 203.605469 299.957031 204.699219 299.4375 205.769531 298.867188 C 206.839844 298.292969 207.878906 297.671875 208.886719 296.996094 C 209.894531 296.324219 210.867188 295.601562 211.804688 294.832031 C 212.742188 294.0625 213.640625 293.25 214.496094 292.394531 C 215.355469 291.535156 216.167969 290.640625 216.9375 289.703125 C 217.707031 288.765625 218.425781 287.792969 219.101562 286.785156 C 219.773438 285.777344 220.394531 284.738281 220.96875 283.667969 C 221.539062 282.597656 222.058594 281.503906 222.519531 280.382812 C 222.984375 279.265625 223.390625 278.125 223.742188 276.964844 C 224.09375 275.804688 224.390625 274.628906 224.625 273.441406 C 224.863281 272.25 225.039062 271.054688 225.15625 269.847656 C 225.277344 268.640625 225.335938 267.433594 225.335938 266.21875 C 225.335938 265.007812 225.273438 263.796875 225.15625 262.59375 C 225.035156 261.386719 224.859375 260.1875 224.621094 259 C 224.382812 257.8125 224.089844 256.636719 223.738281 255.476562 C 223.382812 254.316406 222.976562 253.175781 222.511719 252.058594 C 222.046875 250.9375 221.527344 249.84375 220.957031 248.773438 C 220.382812 247.707031 219.761719 246.667969 219.085938 245.660156 C 218.414062 244.652344 217.691406 243.679688 216.921875 242.742188 C 216.152344 241.808594 215.335938 240.910156 214.480469 240.054688 C 213.621094 239.195312 212.722656 238.382812 211.785156 237.617188 C 210.847656 236.847656 209.875 236.125 208.863281 235.453125 C 207.855469 234.78125 206.816406 234.15625 205.746094 233.585938 C 204.675781 233.015625 203.582031 232.5 202.460938 232.035156 C 201.339844 231.570312 200.199219 231.164062 199.039062 230.8125 C 197.878906 230.460938 196.703125 230.167969 195.511719 229.929688 C 194.324219 229.695312 193.125 229.519531 191.917969 229.398438 C 190.710938 229.28125 189.5 229.222656 188.289062 229.222656 " fill-opacity="1" fill-rule="nonzero"/><path fill="#f2ce80" d="M 188.953125 229.296875 C 188.402344 229.316406 187.855469 229.308594 187.304688 229.273438 C 186.753906 229.242188 186.210938 229.179688 185.667969 229.089844 C 185.121094 229.003906 184.585938 228.886719 184.054688 228.746094 C 183.519531 228.605469 182.996094 228.441406 182.480469 228.246094 C 181.964844 228.054688 181.460938 227.835938 180.96875 227.59375 C 180.472656 227.355469 179.992188 227.089844 179.523438 226.796875 C 179.054688 226.507812 178.601562 226.199219 178.164062 225.863281 C 177.726562 225.53125 177.308594 225.175781 176.90625 224.800781 C 176.503906 224.425781 176.121094 224.03125 175.753906 223.621094 C 175.390625 223.207031 175.046875 222.777344 174.726562 222.332031 C 174.40625 221.886719 174.105469 221.425781 173.832031 220.949219 C 173.554688 220.472656 173.300781 219.984375 173.074219 219.484375 C 172.84375 218.984375 172.640625 218.472656 172.464844 217.953125 C 172.285156 217.433594 172.132812 216.90625 172.007812 216.371094 C 171.878906 215.835938 171.78125 215.292969 171.707031 214.75 C 171.636719 214.203125 171.589844 213.65625 171.570312 213.105469 C 171.550781 212.558594 171.558594 212.007812 171.59375 211.457031 C 171.628906 210.910156 171.6875 210.363281 171.777344 209.820312 C 171.867188 209.277344 171.980469 208.742188 172.121094 208.210938 C 172.261719 207.679688 172.429688 207.15625 172.625 206.640625 C 172.816406 206.125 173.035156 205.621094 173.277344 205.125 C 173.519531 204.632812 173.785156 204.152344 174.074219 203.683594 C 174.363281 203.214844 174.675781 202.761719 175.007812 202.328125 C 175.34375 201.890625 175.699219 201.46875 176.074219 201.066406 C 176.449219 200.664062 176.84375 200.28125 177.257812 199.917969 C 177.667969 199.554688 178.097656 199.214844 178.546875 198.890625 C 178.992188 198.570312 179.453125 198.273438 179.929688 197.996094 C 180.40625 197.71875 180.894531 197.46875 181.394531 197.238281 C 181.894531 197.011719 182.40625 196.808594 182.929688 196.632812 C 183.449219 196.453125 183.976562 196.300781 184.511719 196.175781 C 185.046875 196.050781 185.589844 195.949219 186.132812 195.878906 C 186.679688 195.804688 187.226562 195.757812 187.777344 195.738281 C 188.328125 195.71875 188.878906 195.726562 189.425781 195.761719 C 189.976562 195.796875 190.523438 195.859375 191.066406 195.949219 C 191.609375 196.035156 192.144531 196.152344 192.679688 196.292969 C 193.210938 196.433594 193.734375 196.601562 194.25 196.792969 C 194.765625 196.988281 195.269531 197.203125 195.761719 197.445312 C 196.257812 197.691406 196.738281 197.957031 197.207031 198.246094 C 197.675781 198.535156 198.125 198.847656 198.5625 199.179688 C 199 199.515625 199.421875 199.871094 199.824219 200.246094 C 200.226562 200.621094 200.609375 201.015625 200.972656 201.425781 C 201.335938 201.839844 201.679688 202.269531 202 202.714844 C 202.320312 203.164062 202.621094 203.625 202.894531 204.097656 C 203.171875 204.574219 203.425781 205.0625 203.652344 205.5625 C 203.878906 206.066406 204.082031 206.574219 204.261719 207.097656 C 204.4375 207.617188 204.589844 208.144531 204.714844 208.679688 C 204.84375 209.214844 204.941406 209.753906 205.015625 210.300781 C 205.085938 210.847656 205.132812 211.394531 205.152344 211.941406 L 227.207031 209.265625 C 227.167969 208.054688 227.066406 206.847656 226.902344 205.648438 C 226.742188 204.449219 226.523438 203.257812 226.246094 202.078125 C 225.96875 200.898438 225.632812 199.734375 225.242188 198.589844 C 224.847656 197.441406 224.402344 196.316406 223.898438 195.214844 C 223.394531 194.113281 222.839844 193.039062 222.230469 191.988281 C 221.621094 190.941406 220.964844 189.925781 220.253906 188.941406 C 219.546875 187.960938 218.792969 187.011719 217.992188 186.105469 C 217.191406 185.195312 216.34375 184.328125 215.457031 183.5 C 214.570312 182.671875 213.648438 181.894531 212.683594 181.15625 C 211.71875 180.421875 210.722656 179.734375 209.691406 179.097656 C 208.660156 178.460938 207.601562 177.875 206.511719 177.339844 C 205.421875 176.808594 204.3125 176.328125 203.175781 175.902344 C 202.039062 175.480469 200.886719 175.113281 199.714844 174.800781 C 198.542969 174.488281 197.359375 174.238281 196.160156 174.042969 C 194.964844 173.847656 193.761719 173.710938 192.550781 173.632812 C 191.339844 173.558594 190.128906 173.539062 188.917969 173.582031 C 187.707031 173.625 186.5 173.726562 185.296875 173.886719 C 184.097656 174.046875 182.90625 174.265625 181.726562 174.542969 C 180.546875 174.824219 179.382812 175.15625 178.234375 175.550781 C 177.085938 175.941406 175.960938 176.386719 174.859375 176.890625 C 173.753906 177.394531 172.679688 177.949219 171.628906 178.554688 C 170.582031 179.164062 169.566406 179.820312 168.582031 180.53125 C 167.597656 181.238281 166.648438 181.992188 165.738281 182.792969 C 164.828125 183.59375 163.960938 184.4375 163.132812 185.324219 C 162.308594 186.210938 161.527344 187.132812 160.789062 188.097656 C 160.054688 189.058594 159.367188 190.054688 158.726562 191.085938 C 158.089844 192.117188 157.503906 193.175781 156.96875 194.261719 C 156.4375 195.351562 155.957031 196.460938 155.53125 197.597656 C 155.109375 198.730469 154.738281 199.886719 154.429688 201.054688 C 154.117188 202.226562 153.863281 203.410156 153.667969 204.605469 C 153.472656 205.800781 153.335938 207.003906 153.261719 208.214844 C 153.183594 209.421875 153.167969 210.632812 153.207031 211.84375 C 153.25 213.054688 153.351562 214.261719 153.511719 215.460938 C 153.675781 216.664062 153.894531 217.851562 154.171875 219.03125 C 154.449219 220.210938 154.785156 221.375 155.175781 222.523438 C 155.566406 223.667969 156.015625 224.792969 156.519531 225.894531 C 157.019531 227 157.574219 228.074219 158.183594 229.121094 C 158.792969 230.167969 159.449219 231.1875 160.160156 232.167969 C 160.867188 233.152344 161.621094 234.097656 162.421875 235.007812 C 163.226562 235.917969 164.070312 236.785156 164.957031 237.613281 C 165.84375 238.4375 166.765625 239.21875 167.730469 239.957031 C 168.695312 240.691406 169.691406 241.378906 170.722656 242.015625 C 171.753906 242.652344 172.8125 243.238281 173.902344 243.773438 C 174.988281 244.304688 176.101562 244.785156 177.238281 245.210938 C 178.375 245.632812 179.527344 246.003906 180.699219 246.3125 C 181.871094 246.625 183.054688 246.878906 184.25 247.074219 C 185.449219 247.269531 186.652344 247.402344 187.863281 247.480469 C 189.070312 247.558594 190.28125 247.574219 191.496094 247.53125 " fill-opacity="1" fill-rule="nonzero"/><path fill="#f2ce80" d="M 181.421875 163.246094 L 197.066406 163.246094 L 197.066406 313.535156 L 181.421875 313.535156 Z M 181.421875 163.246094 " fill-opacity="1" fill-rule="nonzero"/><path fill="#178768" d="M 112.746094 15.660156 C 112.472656 15.113281 112.257812 14.542969 112.105469 13.953125 C 111.957031 13.359375 111.871094 12.761719 111.851562 12.148438 C 111.832031 11.539062 111.878906 10.933594 111.992188 10.335938 C 112.105469 9.734375 112.28125 9.152344 112.519531 8.589844 C 112.757812 8.03125 113.054688 7.5 113.410156 7.003906 C 113.765625 6.507812 114.171875 6.054688 114.625 5.644531 C 115.078125 5.234375 115.570312 4.878906 116.101562 4.578125 C 116.632812 4.277344 117.191406 4.039062 117.777344 3.859375 C 122.515625 2.375 127.355469 1.402344 132.300781 0.945312 C 137.246094 0.484375 142.183594 0.546875 147.113281 1.132812 C 176.039062 4.789062 183.105469 25.648438 208.949219 28.601562 C 238.4375 31.921875 257.78125 8.042969 263.867188 13.722656 C 268.191406 17.792969 263.085938 34.523438 227.5625 85.507812 C 227.160156 86.082031 226.695312 86.597656 226.164062 87.054688 C 225.636719 87.515625 225.058594 87.902344 224.433594 88.214844 C 223.808594 88.53125 223.152344 88.765625 222.46875 88.914062 C 221.785156 89.066406 221.09375 89.132812 220.394531 89.113281 L 153.605469 87.113281 C 152.847656 87.089844 152.105469 86.96875 151.382812 86.746094 C 150.660156 86.523438 149.976562 86.207031 149.339844 85.800781 C 148.699219 85.394531 148.128906 84.910156 147.621094 84.347656 C 147.113281 83.785156 146.6875 83.167969 146.347656 82.488281 Z M 112.746094 15.660156 " fill-opacity="1" fill-rule="nonzero"/></svg>