<svg xmlns="http://www.w3.org/2000/svg" xmlns:xlink="http://www.w3.org/1999/xlink" width="500" zoomAndPan="magnify" viewBox="0 0 375 374.999991" height="500" preserveAspectRatio="xMidYMid meet" version="1.0"><defs><clipPath id="2723c6dc58"><path d="M 37.5 22 L 337.5 22 L 337.5 363.984375 L 37.5 363.984375 Z M 37.5 22 " clip-rule="nonzero"/></clipPath></defs><g clip-path="url(#2723c6dc58)"><path fill="#e44d26" d="M 64.734375 329.050781 L 37.414062 22.9375 L 337.585938 22.9375 L 310.246094 329.007812 L 187.308594 363.039062 Z M 64.734375 329.050781 " fill-opacity="1" fill-rule="nonzero"/></g><path fill="#f16529" d="M 286.828125 309.515625 L 310.203125 47.96875 L 187.5 47.96875 L 187.5 337.03125 Z M 286.828125 309.515625 " fill-opacity="1" fill-rule="nonzero"/><path fill="#ebebeb" d="M 187.371094 85.507812 L 93.265625 85.507812 L 103.402344 199.042969 L 187.5 199.042969 L 187.5 161.5 L 137.777344 161.5 L 134.339844 123.058594 L 187.5 123.058594 L 187.5 85.507812 Z M 187.5 258.878906 L 187.339844 258.921875 L 145.488281 247.636719 L 142.828125 217.695312 L 105.085938 217.695312 L 110.351562 276.640625 L 187.328125 297.898438 L 187.5 297.84375 Z M 187.5 258.878906 " fill-opacity="1" fill-rule="nonzero"/><path fill="#ffffff" d="M 187.371094 199.042969 L 233.648438 199.042969 L 229.394531 247.71875 L 187.480469 259.019531 L 187.480469 298.078125 L 264.519531 276.746094 L 274.839844 161.480469 L 187.5 161.480469 Z M 280.605469 95.585938 L 281.5 85.507812 L 187.351562 85.507812 L 187.351562 123.046875 L 278.117188 123.046875 L 278.863281 114.609375 Z M 280.605469 95.585938 " fill-opacity="1" fill-rule="nonzero"/></svg>