<svg xmlns="http://www.w3.org/2000/svg" xmlns:xlink="http://www.w3.org/1999/xlink" width="500" zoomAndPan="magnify" viewBox="0 0 375 374.999991" height="500" preserveAspectRatio="xMidYMid meet" version="1.0"><defs><clipPath id="4020da6d05"><path d="M 14.917969 17.167969 L 359.917969 17.167969 L 359.917969 362.167969 L 14.917969 362.167969 Z M 14.917969 17.167969 " clip-rule="nonzero"/></clipPath></defs><g clip-path="url(#4020da6d05)"><path fill="#f7df1e" d="M 14.917969 17.167969 L 359.917969 17.167969 L 359.917969 362.167969 L 14.917969 362.167969 Z M 14.917969 17.167969 " fill-opacity="1" fill-rule="nonzero"/></g><path fill="#000000" d="M 105.632812 305.472656 L 132.035156 289.503906 C 137.128906 298.53125 141.761719 306.175781 152.878906 306.175781 C 163.527344 306.175781 170.25 301.996094 170.25 285.796875 L 170.25 175.558594 L 202.660156 175.558594 L 202.660156 286.253906 C 202.660156 319.824219 182.984375 335.121094 154.265625 335.121094 C 128.328125 335.121094 113.273438 321.6875 105.632812 305.472656 " fill-opacity="1" fill-rule="nonzero"/><path fill="#000000" d="M 220.273438 301.996094 L 246.675781 286.714844 C 253.628906 298.0625 262.660156 306.402344 278.628906 306.402344 C 292.066406 306.402344 300.636719 299.691406 300.636719 290.421875 C 300.636719 279.300781 291.835938 275.367188 277.011719 268.882812 L 268.914062 265.40625 C 245.515625 255.449219 230.003906 242.957031 230.003906 216.542969 C 230.003906 192.230469 248.523438 173.699219 277.484375 173.699219 C 298.089844 173.699219 312.914062 180.882812 323.558594 199.640625 L 298.316406 215.855469 C 292.765625 205.894531 286.742188 201.960938 277.484375 201.960938 C 267.980469 201.960938 261.957031 207.984375 261.957031 215.855469 C 261.957031 225.585938 267.980469 229.519531 281.875 235.542969 L 289.976562 239.007812 C 317.535156 250.824219 333.058594 262.859375 333.058594 289.960938 C 333.058594 319.140625 310.136719 335.121094 279.328125 335.121094 C 249.222656 335.121094 229.777344 320.757812 220.273438 301.996094 " fill-opacity="1" fill-rule="nonzero"/></svg>