<svg xmlns="http://www.w3.org/2000/svg" xmlns:xlink="http://www.w3.org/1999/xlink" width="700" zoomAndPan="magnify" viewBox="0 0 525 149.999998" height="200" preserveAspectRatio="xMidYMid meet" version="1.0"><path stroke-linecap="butt" transform="matrix(1.033347, 0, 0, 1.033347, -34.270123, 61.220271)" fill="none" stroke-linejoin="miter" d="M 49.570221 11.444947 L 47.850234 24.399663 L 83.406713 38.511117 L 85.145601 25.420314 L 64.615382 17.931755 L 87.149103 10.443196 L 88.801046 -2.666507 Z M 120.762563 -10.155066 L 115.878556 27.280168 C 115.228363 32.186857 113.927978 35.207229 110.552267 35.207229 C 107.161435 35.207229 107.021568 32.186857 107.739804 26.561932 L 94.788869 26.561932 L 94.490234 28.724201 C 92.978157 40.393652 96.860414 47.001426 109.83025 47.001426 C 122.062949 47.001426 127.827741 40.393652 129.339817 28.864068 L 134.454416 -10.155066 Z M 166.986742 -11.156817 C 151.869757 -11.156817 144.524846 -2.806374 141.939195 16.63137 L 141.572516 19.356887 C 138.986866 38.794631 145.753408 47.001426 160.870393 47.001426 C 175.983598 47.001426 183.260466 38.654764 185.842337 19.21324 L 186.212795 16.491502 C 188.798446 -2.950021 182.099947 -11.156817 166.986742 -11.156817 Z M 161.221951 35.207229 C 154.754043 35.207229 154.171894 29.162704 155.47228 19.356887 L 155.823838 16.63137 C 157.124223 6.840674 159.286493 0.656281 165.7544 0.656281 L 166.54446 0.656281 C 173.031268 0.656281 173.609638 6.700807 172.309252 16.491502 L 171.957694 19.21324 C 170.657308 29.003936 168.495039 35.207229 162.012011 35.207229 Z M 201.034925 -10.155066 L 193.686233 45.999676 L 213.845994 45.999676 C 222.774805 45.999676 234.005754 43.977273 235.446007 29.302571 L 235.589654 27.862318 C 236.168023 22.097526 234.289268 18.933506 230.981601 16.982927 C 234.005754 15.047469 236.239847 12.09514 236.89004 7.332099 L 237.09795 5.751979 C 239.052309 -8.344354 229.401481 -10.155066 220.824227 -10.155066 Z M 217.149881 23.258045 C 219.383974 23.258045 222.196436 23.908238 221.773055 28.281919 L 221.68611 29.075759 C 221.262729 33.468341 217.943721 34.190358 215.709628 34.190358 L 208.871262 34.190358 L 210.315295 23.258045 Z M 219.100459 1.658032 C 221.262729 1.658032 223.564865 2.236401 223.198187 6.190481 L 223.126363 6.980541 C 222.774805 10.866578 219.822476 11.444947 217.800074 11.444947 L 211.895415 11.444947 L 213.195801 1.658032 Z M 247.308247 26.561932 L 267.468007 26.561932 L 268.980083 15.047469 L 248.839224 15.047469 Z M 311.526136 -10.155066 L 308.732575 11.444947 L 295.040722 11.444947 L 297.853184 -10.155066 L 284.176452 -10.155066 L 276.831541 45.999676 L 290.504493 45.999676 L 293.456822 23.258045 L 307.148675 23.258045 L 304.196345 45.999676 L 317.869297 45.999676 L 325.217989 -10.155066 Z M 351.271067 47.001426 C 367.544791 47.001426 372.640489 39.95515 374.152565 28.142052 L 379.199121 -10.155066 L 365.522389 -10.155066 L 360.551437 27.790494 C 359.969288 32.2549 358.03761 35.207229 352.061127 35.207229 C 346.084645 35.207229 345.574319 32.2549 346.156469 27.790494 L 351.12742 -10.155066 L 337.439347 -10.155066 L 332.411693 28.142052 C 330.899617 39.95515 334.993564 47.001426 351.271067 47.001426 Z M 433.917389 -10.155066 L 420.943773 -10.155066 L 418.290079 10.004694 L 417.273207 20.79714 L 405.830568 -10.155066 L 391.4356 -10.155066 L 384.090688 45.999676 L 397.041623 45.999676 L 399.642395 25.839915 L 400.715969 15.047469 L 412.173729 45.999676 L 426.568698 45.999676 Z M 468.755632 1.658032 L 481.339889 1.658032 L 482.851966 -10.155066 L 443.991599 -10.155066 L 442.479523 1.658032 L 455.063779 1.658032 L 449.246065 45.999676 L 462.919017 45.999676 Z M 526.838271 11.444947 L 491.213749 -2.666507 L 489.542904 10.443196 L 510.073123 17.931755 L 487.539403 25.420314 L 485.800515 38.511117 L 525.114504 24.399663 Z M 526.838271 11.444947 " stroke="#ffcc01" stroke-width="4.409627" stroke-opacity="1" stroke-miterlimit="4"/></svg>