<svg xmlns="http://www.w3.org/2000/svg" xmlns:xlink="http://www.w3.org/1999/xlink" width="700" zoomAndPan="magnify" viewBox="0 0 525 149.999998" height="200" preserveAspectRatio="xMidYMid meet" version="1.0"><path stroke-linecap="butt" transform="matrix(1.075217, 0, 0, 1.075217, -46.29487, 58.230805)" fill="none" stroke-linejoin="miter" d="M 55.321265 11.44723 L 53.599229 24.39883 L 89.155275 38.512985 L 90.895476 25.419699 L 70.365465 17.932112 L 92.897252 10.444526 L 94.550261 -2.666925 Z M 149.924253 -10.154512 L 136.954488 -10.154512 L 134.298774 10.004934 L 133.281538 20.794906 L 121.837628 -10.154512 L 107.443733 -10.154512 L 100.097833 46.000572 L 113.049432 46.000572 L 115.650651 25.841126 L 116.726015 15.04752 L 128.184457 46.000572 L 142.578352 46.000572 Z M 162.512553 -10.154512 L 155.166653 46.000572 L 190.439326 46.000572 L 191.954282 34.18973 L 170.35254 34.18973 L 171.794836 23.258072 L 189.789022 23.258072 L 191.373004 11.44723 L 173.375185 11.44723 L 174.675795 1.656329 L 196.277537 1.656329 L 197.78886 -10.154512 Z M 231.913509 1.656329 L 244.498177 1.656329 L 246.009499 -10.154512 L 207.151068 -10.154512 L 205.639745 1.656329 L 218.224413 1.656329 L 212.404367 46.000572 L 226.078931 46.000572 Z M 286.324759 46.000572 L 303.7413 46.000572 L 320.017082 -10.154512 L 305.764873 -10.154512 L 296.555251 27.141735 L 295.112955 -10.154512 L 278.255894 -10.154512 L 267.02633 27.141735 L 267.607608 -10.154512 L 253.351767 -10.154512 L 254.935749 46.000572 L 272.283263 46.000572 L 284.602723 5.539993 Z M 350.178143 -11.157217 C 335.064916 -11.157217 327.715382 -2.808612 325.132328 16.631503 L 324.765397 19.356243 C 322.182343 38.792725 328.946965 47.003276 344.063825 47.003276 C 359.177052 47.003276 366.453925 38.654672 369.036979 19.214557 L 369.407544 16.489816 C 371.990598 -2.946665 365.295002 -11.157217 350.178143 -11.157217 Z M 344.412592 35.206967 C 337.945875 35.206967 337.364597 29.161676 338.665206 19.356243 L 339.017606 16.631503 C 340.318215 6.840602 342.479843 0.653625 348.950193 0.653625 L 349.738551 0.653625 C 356.223433 0.653625 356.804711 6.702549 355.504102 16.489816 L 355.151702 19.214557 C 353.851093 29.005457 351.689465 35.206967 345.204583 35.206967 Z M 394.598678 14.909467 L 396.38974 1.656329 L 402.645744 1.656329 C 405.319623 1.656329 408.131555 2.517347 407.619304 7.843307 L 407.550277 8.635298 C 407.041659 13.819571 403.524927 14.909467 400.854682 14.909467 Z M 393.087355 26.702144 L 396.898359 26.702144 L 401.7157 46.000572 L 416.48016 46.000572 L 410.503896 24.838421 C 415.757195 22.676794 420.08045 18.142826 421.293868 9.00223 L 421.522746 7.42188 C 423.597182 -8.134571 413.08695 -10.154512 403.597587 -10.154512 L 384.226499 -10.154512 L 376.880599 46.000572 L 390.555163 46.000572 Z M 449.009928 -10.154512 L 435.338997 -10.154512 L 427.989463 46.000572 L 441.664027 46.000572 L 443.687601 30.16438 L 448.290596 24.609543 L 454.633792 46.000572 L 469.750652 46.000572 L 458.800828 11.955848 L 477.096552 -10.154512 L 460.522864 -10.154512 L 446.499533 9.143916 Z M 521.07023 11.44723 L 485.445157 -2.666925 L 483.773983 10.444526 L 504.303993 17.932112 L 481.772207 25.419699 L 480.032006 38.512985 L 519.348194 24.39883 Z M 521.07023 11.44723 " stroke="#ffcc01" stroke-width="4.409627" stroke-opacity="1" stroke-miterlimit="4"/></svg>