<svg xmlns="http://www.w3.org/2000/svg" xmlns:xlink="http://www.w3.org/1999/xlink" width="500" zoomAndPan="magnify" viewBox="0 0 375 374.999991" height="500" preserveAspectRatio="xMidYMid meet" version="1.0"><defs><clipPath id="bf408f3923"><path d="M 6.207031 31 L 368.457031 31 L 368.457031 353 L 6.207031 353 Z M 6.207031 31 " clip-rule="nonzero"/></clipPath></defs><g clip-path="url(#bf408f3923)"><path fill="#00d8ff" d="M 303.808594 135.253906 C 300.066406 133.960938 296.183594 132.738281 292.171875 131.585938 C 292.835938 128.898438 293.441406 126.25 293.980469 123.648438 C 302.777344 80.882812 297.03125 46.433594 277.359375 35.09375 C 258.492188 24.21875 227.648438 35.558594 196.496094 62.667969 C 193.503906 65.273438 190.496094 68.03125 187.5 70.925781 C 185.496094 69.011719 183.503906 67.164062 181.511719 65.394531 C 148.863281 36.40625 116.140625 24.191406 96.492188 35.566406 C 77.648438 46.472656 72.066406 78.859375 80 119.386719 C 80.765625 123.300781 81.660156 127.296875 82.671875 131.363281 C 78.039062 132.675781 73.570312 134.078125 69.292969 135.566406 C 31.015625 148.910156 6.574219 169.828125 6.574219 191.519531 C 6.574219 213.917969 32.8125 236.398438 72.679688 250.027344 C 75.824219 251.101562 79.089844 252.117188 82.453125 253.078125 C 81.363281 257.46875 80.414062 261.777344 79.613281 265.984375 C 72.054688 305.808594 77.957031 337.425781 96.75 348.257812 C 116.160156 359.457031 148.738281 347.949219 180.453125 320.226562 C 182.96875 318.039062 185.480469 315.707031 187.996094 313.277344 C 191.273438 316.414062 194.535156 319.394531 197.769531 322.191406 C 228.496094 348.625 258.84375 359.300781 277.613281 348.441406 C 297 337.214844 303.3125 303.238281 295.125 261.917969 C 294.5 258.753906 293.765625 255.535156 292.960938 252.257812 C 295.25 251.582031 297.496094 250.875 299.683594 250.15625 C 341.132812 236.414062 368.089844 214.230469 368.089844 191.519531 C 368.089844 169.746094 342.855469 148.691406 303.808594 135.253906 Z M 294.828125 235.496094 C 292.847656 236.144531 290.816406 236.78125 288.753906 237.390625 C 284.179688 222.914062 278.007812 207.507812 270.4375 191.59375 C 277.65625 176.058594 283.585938 160.855469 288.035156 146.464844 C 291.734375 147.535156 295.320312 148.664062 298.78125 149.855469 C 332.234375 161.371094 352.640625 178.402344 352.640625 191.519531 C 352.640625 205.488281 330.609375 223.632812 294.828125 235.496094 Z M 279.96875 264.914062 C 283.601562 283.1875 284.109375 299.707031 281.707031 312.628906 C 279.5625 324.238281 275.226562 331.976562 269.875 335.070312 C 258.476562 341.664062 234.117188 333.09375 207.851562 310.484375 C 204.828125 307.882812 201.792969 305.117188 198.757812 302.195312 C 208.9375 291.050781 219.121094 278.101562 229.0625 263.710938 C 246.53125 262.171875 263.039062 259.628906 278.023438 256.171875 C 278.757812 259.152344 279.40625 262.058594 279.96875 264.914062 Z M 129.828125 333.925781 C 118.695312 337.863281 109.832031 337.976562 104.472656 334.886719 C 93.070312 328.304688 88.328125 302.914062 94.792969 268.867188 C 95.535156 264.96875 96.417969 260.957031 97.433594 256.863281 C 112.242188 260.140625 128.632812 262.496094 146.152344 263.910156 C 156.15625 277.988281 166.636719 290.925781 177.183594 302.25 C 174.882812 304.480469 172.578125 306.597656 170.292969 308.589844 C 156.269531 320.863281 142.214844 329.5625 129.828125 333.925781 Z M 77.679688 235.410156 C 60.050781 229.382812 45.492188 221.558594 35.515625 213 C 26.546875 205.332031 22.023438 197.707031 22.023438 191.523438 C 22.023438 178.359375 41.648438 161.5625 74.378906 150.152344 C 78.351562 148.765625 82.511719 147.460938 86.824219 146.234375 C 91.347656 160.949219 97.28125 176.339844 104.445312 191.886719 C 97.191406 207.675781 91.171875 223.308594 86.601562 238.207031 C 83.527344 237.316406 80.546875 236.386719 77.679688 235.410156 Z M 95.160156 116.417969 C 88.367188 81.695312 92.878906 55.503906 104.234375 48.929688 C 116.328125 41.929688 143.070312 51.914062 171.253906 76.941406 C 173.058594 78.542969 174.867188 80.214844 176.691406 81.949219 C 166.183594 93.226562 155.804688 106.066406 145.886719 120.058594 C 128.882812 121.636719 112.609375 124.167969 97.644531 127.558594 C 96.707031 123.773438 95.871094 120.054688 95.160156 116.417969 Z M 251.09375 154.925781 C 247.519531 148.746094 243.847656 142.714844 240.105469 136.84375 C 251.644531 138.304688 262.6875 140.238281 273.066406 142.609375 C 269.960938 152.59375 266.074219 163.035156 261.5 173.742188 C 258.222656 167.511719 254.75 161.234375 251.09375 154.925781 Z M 187.503906 92.984375 C 194.632812 100.703125 201.765625 109.320312 208.785156 118.667969 C 201.710938 118.335938 194.550781 118.160156 187.332031 118.160156 C 180.1875 118.160156 173.085938 118.328125 166.050781 118.660156 C 173.070312 109.398438 180.273438 100.792969 187.503906 92.984375 Z M 123.503906 155.03125 C 119.933594 161.226562 116.527344 167.472656 113.300781 173.726562 C 108.804688 163.058594 104.957031 152.574219 101.8125 142.445312 C 112.128906 140.136719 123.128906 138.25 134.589844 136.816406 C 130.789062 142.742188 127.089844 148.816406 123.503906 155.03125 Z M 134.917969 247.316406 C 123.074219 246.003906 111.910156 244.210938 101.601562 241.964844 C 104.792969 231.65625 108.722656 220.953125 113.316406 210.050781 C 116.554688 216.304688 119.972656 222.546875 123.566406 228.761719 C 127.230469 235.085938 131.023438 241.273438 134.917969 247.316406 Z M 187.925781 291.136719 C 180.609375 283.242188 173.308594 274.5 166.179688 265.109375 C 173.097656 265.378906 180.160156 265.519531 187.332031 265.519531 C 194.703125 265.519531 201.992188 265.351562 209.152344 265.039062 C 202.117188 274.601562 195 283.355469 187.925781 291.136719 Z M 261.640625 209.5 C 266.472656 220.511719 270.550781 231.160156 273.785156 241.300781 C 263.308594 243.6875 251.984375 245.609375 240.0625 247.046875 C 243.820312 241.101562 247.519531 234.960938 251.164062 228.648438 C 254.847656 222.265625 258.335938 215.867188 261.640625 209.5 Z M 237.777344 220.9375 C 232.128906 230.738281 226.324219 240.085938 220.433594 248.914062 C 209.714844 249.675781 198.628906 250.070312 187.332031 250.070312 C 176.078125 250.070312 165.132812 249.730469 154.597656 249.039062 C 148.46875 240.101562 142.546875 230.722656 136.929688 221.023438 L 136.933594 221.023438 C 131.332031 211.347656 126.175781 201.589844 121.507812 191.890625 C 126.175781 182.171875 131.316406 172.402344 136.886719 162.746094 L 136.882812 162.746094 C 142.464844 153.066406 148.34375 143.730469 154.414062 134.839844 C 165.160156 134.027344 176.191406 133.605469 187.332031 133.605469 C 198.53125 133.605469 209.5625 134.03125 220.308594 134.851562 C 226.296875 143.675781 232.128906 152.980469 237.734375 162.664062 C 243.398438 172.457031 248.609375 182.160156 253.308594 191.675781 C 248.621094 201.351562 243.425781 211.152344 237.777344 220.9375 Z M 269.636719 48.46875 C 281.75 55.449219 286.453125 83.605469 278.84375 120.527344 C 278.363281 122.882812 277.8125 125.28125 277.21875 127.710938 C 262.222656 124.25 245.9375 121.675781 228.894531 120.078125 C 218.953125 105.929688 208.65625 93.070312 198.320312 81.9375 C 201.101562 79.265625 203.882812 76.714844 206.636719 74.3125 C 233.328125 51.085938 258.28125 41.914062 269.636719 48.46875 Z M 187.332031 159.230469 C 205.15625 159.230469 219.617188 173.679688 219.617188 191.515625 C 219.617188 209.339844 205.15625 223.800781 187.332031 223.800781 C 169.511719 223.800781 155.050781 209.339844 155.050781 191.515625 C 155.050781 173.679688 169.511719 159.230469 187.332031 159.230469 Z M 187.332031 159.230469 " fill-opacity="1" fill-rule="nonzero"/></g></svg>