<svg xmlns="http://www.w3.org/2000/svg" xmlns:xlink="http://www.w3.org/1999/xlink" width="859" zoomAndPan="magnify" viewBox="0 0 644.25 131.249995" height="175" preserveAspectRatio="xMidYMid meet" version="1.0"><defs><clipPath id="41cfcfaf1e"><path d="M 1.457031 4 L 642.046875 4 L 642.046875 119 L 1.457031 119 Z M 1.457031 4 " clip-rule="nonzero"/></clipPath></defs><g clip-path="url(#41cfcfaf1e)"><path stroke-linecap="butt" transform="matrix(0.836346, 0, 0, 0.836346, -41.752911, 32.130903)" fill="none" stroke-linejoin="miter" d="M 61.440752 27.320711 L 59.264246 43.695888 L 104.209575 61.537638 L 106.409435 44.984978 L 80.459497 35.517641 L 108.940909 26.054975 L 111.028674 9.483632 Z M 159.098645 14.948252 L 175.00676 14.948252 L 176.917042 0.0162951 L 127.796182 0.0162951 L 125.8859 14.948252 L 141.794016 14.948252 L 134.437797 71.000305 L 151.723744 71.000305 Z M 193.310901 0.0162951 L 184.021048 71.000305 L 228.611411 71.000305 L 230.521692 56.068348 L 203.217276 56.068348 L 205.038816 42.252668 L 227.789382 42.252668 L 229.788406 27.320711 L 207.037839 27.320711 L 208.681896 14.948252 L 235.986312 14.948252 L 237.896594 0.0162951 Z M 268.106133 33.873584 C 269.750189 21.589867 272.015437 13.682515 280.660746 13.682515 L 281.660258 13.682515 C 288.502709 13.682515 289.123901 19.123782 288.035648 27.320711 L 305.321594 27.320711 L 305.788656 23.766373 C 307.965163 6.65791 299.502008 -1.249442 282.216061 -1.249442 C 263.108574 -1.249442 253.823391 9.306149 250.553961 33.873584 L 250.09157 37.320498 C 246.822139 61.892605 255.378706 72.266041 274.481522 72.266041 C 290.412991 72.266041 300.679003 65.624426 302.696709 47.250226 L 302.78545 46.428198 L 285.480821 46.428198 C 284.682146 52.803588 282.038578 57.357438 275.929413 57.357438 L 274.929901 57.357438 C 266.751654 57.357438 266.018368 49.716311 267.662424 37.320498 Z M 361.649213 0.0162951 L 358.118228 27.320711 L 340.808928 27.320711 L 344.363267 0.0162951 L 327.08199 0.0162951 L 317.792137 71.000305 L 335.078084 71.000305 L 338.809905 42.252668 L 356.119205 42.252668 L 352.387383 71.000305 L 369.66866 71.000305 L 378.958513 0.0162951 Z M 443.025342 42.430151 C 452.665491 43.695888 454.39829 46.51694 454.01997 50.071278 L 453.931228 50.982048 C 453.576261 54.447644 450.932693 57.357438 445.024365 57.357438 L 444.113595 57.357438 C 438.200596 57.357438 435.557028 54.246808 436.55654 46.428198 L 419.275263 46.428198 L 419.074427 47.894771 C 416.986662 64.35869 425.916878 72.266041 443.202825 72.266041 C 459.928298 72.266041 469.951438 65.180718 471.418011 51.804076 L 471.595495 50.16002 C 473.127456 36.610565 466.3971 30.585471 451.198918 28.497706 C 441.824993 27.23197 440.288361 24.765885 440.647998 20.945322 L 440.73674 20.034552 C 441.110389 16.503567 444.024853 13.682515 449.022411 13.682515 L 449.933181 13.682515 C 456.308571 13.682515 458.130111 17.503078 457.018505 25.499171 L 474.327804 25.499171 L 474.59403 23.322665 C 476.593053 7.124971 469.218151 -1.249442 451.488496 -1.249442 C 433.735488 -1.249442 424.539047 7.302455 423.184568 19.857068 L 422.983732 21.501125 C 421.540512 34.321964 427.82716 40.431128 443.025342 42.430151 Z M 524.013809 14.948252 L 539.921924 14.948252 L 541.832206 0.0162951 L 492.711346 0.0162951 L 490.801064 14.948252 L 506.709179 14.948252 L 499.352961 71.000305 L 516.638907 71.000305 Z M 571.420553 0.0162951 L 545.20439 71.000305 L 563.779426 71.000305 L 568.422018 56.624151 L 583.153138 56.624151 L 584.241391 71.000305 L 602.723016 71.000305 L 595.081889 0.0162951 Z M 580.616994 20.034552 L 582.153626 41.696865 L 573.419576 41.696865 Z M 639.392015 33.873584 C 641.036072 21.589867 643.30132 13.682515 651.946629 13.682515 L 652.946141 13.682515 C 659.788592 13.682515 660.409784 19.123782 659.32153 27.320711 L 676.607477 27.320711 L 677.074539 23.766373 C 679.251045 6.65791 670.78322 -1.249442 653.501944 -1.249442 C 634.394457 -1.249442 625.109274 9.306149 621.839844 33.873584 L 621.377453 37.320498 C 618.108022 61.892605 626.664589 72.266041 645.767405 72.266041 C 661.698874 72.266041 671.964886 65.624426 673.982591 47.250226 L 674.071333 46.428198 L 656.766704 46.428198 C 655.968029 52.803588 653.324461 57.357438 647.215296 57.357438 L 646.215784 57.357438 C 638.037537 57.357438 637.30425 49.716311 638.948307 37.320498 Z M 715.649149 0.0162951 L 698.367873 0.0162951 L 689.07802 71.000305 L 706.363966 71.000305 L 708.918793 50.982048 L 714.738379 43.962113 L 722.762496 71.000305 L 741.865312 71.000305 L 728.02628 27.965256 L 751.155166 0.0162951 L 730.202786 0.0162951 L 712.473131 24.410918 Z M 810.383237 27.320711 L 765.349166 9.483632 L 763.238047 26.054975 L 789.187985 35.517641 L 760.706574 44.984978 L 758.506714 61.537638 L 808.20673 43.695888 Z M 810.383237 27.320711 " stroke="#27ae60" stroke-width="5.574234" stroke-opacity="1" stroke-miterlimit="4"/></g></svg>