<svg xmlns="http://www.w3.org/2000/svg" xmlns:xlink="http://www.w3.org/1999/xlink" width="900" zoomAndPan="magnify" viewBox="0 0 675 112.499997" height="150" preserveAspectRatio="xMidYMid meet" version="1.0"><defs><clipPath id="b970c87ea5"><path d="M 1.492188 43 L 670 43 L 670 112.003906 L 1.492188 112.003906 Z M 1.492188 43 " clip-rule="nonzero"/></clipPath></defs><path stroke-linecap="butt" transform="matrix(1.200025, 0, 0, 1.200025, 14.637468, 8.240813)" fill="none" stroke-linejoin="miter" d="M 85.518448 12.269773 L 84.483313 20.039795 L 105.814254 28.509673 L 106.859155 20.651762 L 94.544955 16.159667 L 108.060302 11.667572 L 109.05312 3.803151 Z M 134.924983 32.998513 L 145.373987 32.998513 L 155.13941 -0.688944 L 146.588154 -0.688944 L 141.064179 21.686897 L 140.198312 -0.688944 L 130.084588 -0.688944 L 123.3497 21.686897 L 123.694745 -0.688944 L 115.143489 -0.688944 L 116.093991 32.998513 L 126.500677 32.998513 L 133.893103 8.728179 Z M 161.057257 -0.688944 L 156.649796 32.998513 L 177.81147 32.998513 L 178.719654 25.915325 L 165.760936 25.915325 L 166.623549 19.356216 L 177.420853 19.356216 L 178.371354 12.269773 L 167.57405 12.269773 L 168.355284 6.397498 L 181.314002 6.397498 L 182.218931 -0.688944 Z M 209.425402 -0.688944 L 201.222446 -0.688944 L 196.814985 32.998513 L 205.017941 32.998513 L 206.232108 23.500011 L 208.995723 20.166746 L 212.800983 32.998513 L 221.869807 32.998513 L 215.300932 12.575756 L 226.277268 -0.688944 L 216.332812 -0.688944 L 207.918271 10.889593 Z M 240.743116 -0.688944 L 232.530395 -0.688944 L 228.132699 32.998513 L 236.335655 32.998513 Z M 253.998052 15.381688 C 254.779286 9.548475 255.853482 5.795297 259.95496 5.795297 L 260.430211 5.795297 C 263.678842 5.795297 263.971805 8.379879 263.457492 12.269773 L 271.660448 12.269773 L 271.881798 10.58361 C 272.913678 2.462032 268.896833 -1.291146 260.693877 -1.291146 C 251.625054 -1.291146 247.217592 3.718517 245.668145 15.381688 L 245.446796 17.015769 C 243.897348 28.675685 247.956509 33.600714 257.025333 33.600714 C 264.583771 33.600714 269.456718 30.449737 270.416984 21.729214 L 270.459301 21.338597 L 262.243325 21.338597 C 261.865728 24.362623 260.609244 26.527292 257.708913 26.527292 L 257.236917 26.527292 C 253.353534 26.527292 253.008489 22.897809 253.786468 17.015769 Z M 288.463488 -0.688944 L 280.257277 -0.688944 L 275.849815 32.998513 L 284.056027 32.998513 L 285.266939 23.500011 L 288.030554 20.166746 L 291.835814 32.998513 L 300.904638 32.998513 L 294.335763 12.575756 L 305.312099 -0.688944 L 295.367643 -0.688944 L 286.953102 10.889593 Z M 318.873018 19.440849 C 323.449747 20.039795 324.270042 21.380914 324.091009 23.067077 L 324.048693 23.500011 C 323.88268 25.143857 322.626196 26.527292 319.820264 26.527292 L 319.390585 26.527292 C 316.584654 26.527292 315.328169 25.049458 315.80342 21.338597 L 307.600464 21.338597 L 307.506064 22.035197 C 306.513246 29.847536 310.754695 33.600714 318.957652 33.600714 C 326.896941 33.600714 331.652703 30.238153 332.349303 23.890628 L 332.433937 23.109394 C 333.159833 16.677234 329.966539 13.81922 322.753146 12.829657 C 318.303368 12.227456 317.574216 11.055605 317.743484 9.242492 L 317.785801 8.809558 C 317.964833 7.13316 319.348269 5.795297 321.718011 5.795297 L 322.150945 5.795297 C 325.178227 5.795297 326.044094 7.608411 325.516761 11.403906 L 333.729483 11.403906 L 333.856433 10.372026 C 334.803679 2.683382 331.304403 -1.291146 322.889862 -1.291146 C 314.465557 -1.291146 310.100412 2.768016 309.455894 8.728179 L 309.361495 9.506158 C 308.67466 15.590017 311.659625 18.490348 318.873018 19.440849 Z M 355.584501 6.397498 L 363.133174 6.397498 L 364.041359 -0.688944 L 340.724781 -0.688944 L 339.819852 6.397498 L 347.368525 6.397498 L 343.879013 32.998513 L 352.081969 32.998513 Z M 376.355558 -0.688944 L 363.911153 32.998513 L 372.726076 32.998513 L 374.929806 26.178992 L 381.92185 26.178992 L 382.439417 32.998513 L 391.212023 32.998513 L 387.58254 -0.688944 Z M 380.720703 8.809558 L 381.446599 19.092549 L 377.302804 19.092549 Z M 407.624445 14.346553 L 408.698642 6.397498 L 412.45182 6.397498 C 414.056605 6.397498 415.742768 6.911811 415.436785 10.108359 L 415.394468 10.58361 C 415.088484 13.69227 412.979153 14.346553 411.377623 14.346553 Z M 406.716261 21.42323 L 409.004625 21.42323 L 411.895191 32.998513 L 420.75243 32.998513 L 417.165265 20.303462 C 420.319497 19.007916 422.913844 16.286618 423.639741 10.80496 L 423.776457 9.854458 C 425.023176 0.521968 418.717967 -0.688944 413.02147 -0.688944 L 401.40387 -0.688944 L 396.996409 32.998513 L 405.199365 32.998513 Z M 445.416636 6.397498 L 452.965309 6.397498 L 453.873493 -0.688944 L 430.556916 -0.688944 L 429.651987 6.397498 L 437.200659 6.397498 L 433.711148 32.998513 L 441.914104 32.998513 Z M 445.416636 6.397498 " stroke="#ffcc01" stroke-width="2.645773" stroke-opacity="1" stroke-miterlimit="4"/><g clip-path="url(#b970c87ea5)"><path stroke-linecap="butt" transform="matrix(1.200025, 0, 0, 1.200025, 14.637468, 8.240813)" fill="none" stroke-linejoin="miter" d="M 7.730337 45.309457 L 3.322875 79.00017 L 11.525831 79.00017 L 13.299883 65.354617 L 24.097187 65.354617 L 25.044433 58.268175 L 14.247129 58.268175 L 15.028363 52.3959 L 27.987081 52.3959 L 28.895265 45.309457 Z M 41.375477 60.34821 L 42.452929 52.3959 L 46.206107 52.3959 C 47.807636 52.3959 49.497055 52.913467 49.191071 56.106761 L 49.148755 56.582012 C 48.842771 59.693927 46.73344 60.34821 45.13191 60.34821 Z M 40.470548 67.421632 L 42.758912 67.421632 L 45.646222 79.00017 L 54.503462 79.00017 L 50.919551 66.305119 C 54.073783 65.006317 56.664876 62.288274 57.394027 56.803361 L 57.530743 55.856115 C 58.774207 46.523625 52.468999 45.309457 46.775757 45.309457 L 35.154902 45.309457 L 30.747441 79.00017 L 38.950397 79.00017 Z M 77.999072 44.710511 C 68.930248 44.710511 64.522787 49.716919 62.97334 61.38009 L 62.75199 63.014171 C 61.202543 74.677342 65.261704 79.602371 74.330528 79.602371 C 83.396096 79.602371 87.761241 74.592708 89.313943 62.929537 L 89.535293 61.295456 C 91.08474 49.632285 87.067896 44.710511 77.999072 44.710511 Z M 74.538857 72.525694 C 70.658728 72.525694 70.310428 68.899466 71.091662 63.014171 L 71.303246 61.38009 C 72.08448 55.507815 73.380026 51.796954 77.260155 51.796954 L 77.735405 51.796954 C 81.625299 51.796954 81.973599 55.423181 81.192365 61.295456 L 80.984036 62.929537 C 80.202803 68.805067 78.904001 72.525694 75.014107 72.525694 Z M 123.91284 45.309457 L 116.129797 45.309457 L 114.538033 57.405562 L 113.926066 63.880038 L 107.064229 45.309457 L 98.428339 45.309457 L 94.020877 79.00017 L 101.7909 79.00017 L 103.350112 66.904065 L 103.99463 60.432844 L 110.869489 79.00017 L 119.505379 79.00017 Z M 144.814102 52.3959 L 152.36603 52.3959 L 153.270959 45.309457 L 129.957637 45.309457 L 129.052708 52.3959 L 136.601381 52.3959 L 133.111869 79.00017 L 141.314825 79.00017 Z M 155.992257 67.336999 L 168.085107 67.336999 L 168.993292 60.432844 L 156.906952 60.432844 Z M 178.110943 45.309457 L 173.703481 79.00017 L 194.865155 79.00017 L 195.773339 71.913727 L 182.811367 71.913727 L 183.677234 65.354617 L 194.474538 65.354617 L 195.425039 58.268175 L 184.627735 58.268175 L 185.405714 52.3959 L 198.364432 52.3959 L 199.272616 45.309457 Z M 231.885877 45.309457 L 224.102834 45.309457 L 222.51107 57.405562 L 221.899103 63.880038 L 215.03401 45.309457 L 206.39812 45.309457 L 201.990659 79.00017 L 209.760681 79.00017 L 211.323149 66.904065 L 211.967667 60.432844 L 218.842526 79.00017 L 227.478416 79.00017 Z M 262.676258 61.295456 C 264.228961 49.632285 260.599478 45.309457 250.013759 45.309457 L 239.437805 45.309457 L 235.030343 79.00017 L 246.048997 79.00017 C 256.624951 79.00017 260.905462 74.592708 262.454909 62.929537 Z M 244.141484 71.913727 L 246.735831 52.3959 L 248.675896 52.3959 C 254.29427 52.3959 255.11782 55.465498 254.336586 61.295456 L 254.125002 62.929537 C 253.347023 68.76275 252.132856 71.913727 246.524247 71.913727 Z M 288.974545 61.38009 C 289.752524 55.550132 290.829976 51.796954 294.931454 51.796954 L 295.406704 51.796954 C 298.65208 51.796954 298.948298 54.378281 298.43073 58.268175 L 306.636942 58.268175 L 306.858291 56.582012 C 307.890171 48.463689 303.873327 44.710511 295.670371 44.710511 C 286.601547 44.710511 282.194086 49.716919 280.644638 61.38009 L 280.423289 63.014171 C 278.870586 74.677342 282.933003 79.602371 291.998571 79.602371 C 299.560265 79.602371 304.433211 76.448139 305.390223 67.727615 L 305.432539 67.336999 L 297.219818 67.336999 C 296.838966 70.36428 295.585737 72.525694 292.685406 72.525694 L 292.210155 72.525694 C 288.330027 72.525694 287.981727 68.899466 288.762961 63.014171 Z M 321.496662 45.309457 L 309.055512 79.00017 L 317.870434 79.00017 L 320.074165 72.177394 L 327.066209 72.177394 L 327.580521 79.00017 L 336.353127 79.00017 L 332.726899 45.309457 Z M 325.861806 54.811215 L 326.590958 65.090951 L 322.447163 65.090951 Z M 352.765549 60.34821 L 353.843001 52.3959 L 357.596179 52.3959 C 359.197708 52.3959 360.887127 52.913467 360.581143 56.106761 L 360.538827 56.582012 C 360.232843 59.693927 358.123512 60.34821 356.521982 60.34821 Z M 351.86062 67.421632 L 354.148984 67.421632 L 357.036294 79.00017 L 365.893534 79.00017 L 362.309623 66.305119 C 365.463855 65.006317 368.054948 62.288274 368.784099 56.803361 L 368.920815 55.856115 C 370.164279 46.523625 363.859071 45.309457 358.165829 45.309457 L 346.544974 45.309457 L 342.137513 79.00017 L 350.340469 79.00017 Z M 377.208405 45.309457 L 372.800944 79.00017 L 393.965873 79.00017 L 394.870802 71.913727 L 381.912084 71.913727 L 382.777952 65.354617 L 393.575256 65.354617 L 394.522502 58.268175 L 383.725198 58.268175 L 384.506432 52.3959 L 397.465149 52.3959 L 398.373334 45.309457 Z M 405.498838 45.309457 L 401.091377 79.00017 L 422.25305 79.00017 L 423.161235 71.913727 L 410.202517 71.913727 L 411.06513 65.354617 L 421.862433 65.354617 L 422.812935 58.268175 L 412.015631 58.268175 L 412.79361 52.3959 L 425.752327 52.3959 L 426.660512 45.309457 Z M 440.006591 60.34821 L 441.084043 52.3959 L 444.837221 52.3959 C 446.43875 52.3959 448.128169 52.913467 447.822185 56.106761 L 447.779869 56.582012 C 447.473885 59.693927 445.364554 60.34821 443.763024 60.34821 Z M 439.101662 67.421632 L 441.390026 67.421632 L 444.277336 79.00017 L 453.134576 79.00017 L 449.550665 66.305119 C 452.704897 65.006317 455.29599 62.288274 456.025141 56.803361 L 456.161857 55.856115 C 457.405321 46.523625 451.100113 45.309457 445.406871 45.309457 L 433.786016 45.309457 L 429.378555 79.00017 L 437.581511 79.00017 Z M 471.968824 65.439251 C 476.545552 66.041452 477.365848 67.379315 477.186815 69.068734 L 477.144498 69.498412 C 476.978486 71.145514 475.722001 72.525694 472.91607 72.525694 L 472.486391 72.525694 C 469.680459 72.525694 468.42723 71.051115 468.899225 67.336999 L 460.696269 67.336999 L 460.60187 68.033599 C 459.609052 75.845938 463.850501 79.602371 472.053457 79.602371 C 479.992747 79.602371 484.748508 76.236555 485.445109 69.889029 L 485.529742 69.107795 C 486.255639 62.675636 483.062345 59.820877 475.848952 58.828059 C 471.399174 58.225858 470.673277 57.057262 470.83929 55.244149 L 470.881606 54.811215 C 471.060639 53.134817 472.444074 51.796954 474.817072 51.796954 L 475.246751 51.796954 C 478.274032 51.796954 479.1399 53.610068 478.612567 57.405562 L 486.825288 57.405562 L 486.952239 56.370427 C 487.90274 48.685039 484.400208 44.710511 475.985668 44.710511 C 467.561362 44.710511 463.196218 48.769673 462.5517 54.726581 L 462.457301 55.507815 C 461.773721 61.591674 464.75543 64.492005 471.968824 65.439251 Z M 494.243755 45.309457 L 493.338826 68.6358 L 498.9572 68.6358 L 504.188212 45.309457 Z M 499.992335 70.797214 L 491.786124 70.797214 L 490.711927 79.00017 L 498.914883 79.00017 Z M 531.004066 58.268175 L 509.627553 49.801552 L 508.628225 57.669229 L 520.942424 62.161324 L 507.423823 66.653419 L 506.382177 74.508075 L 529.968931 66.041452 Z M 531.004066 58.268175 " stroke="#ffcc01" stroke-width="2.645773" stroke-opacity="1" stroke-miterlimit="4"/></g></svg>